<svg xmlns="http://www.w3.org/2000/svg" width="100" height="100" fill="none" viewBox="0 0 100 100">
  <g clip-path="url(#a)">
    <path fill="#F3F4F6" d="M100 0H0v100h100V0Z"/>
    <path fill="#999" d="M57.917 40.334a1.25 1.25 0 0 1-1.25 1.25H43.334a1.25 1.25 0 0 1 0-2.5h13.333a1.25 1.25 0 0 1 1.25 1.25Z"/>
    <path fill="#999" fill-rule="evenodd" d="m37.31 35.578 1.98-5.413a3.933 3.933 0 0 1 3.15-2.542 55.006 55.006 0 0 1 15.12 0 3.93 3.93 0 0 1 3.15 2.542l1.981 5.413c.37.578.625 1.238.734 1.95l.168 1.132c.666 4.43.604 8.94-.183 13.352a4.44 4.44 0 0 1-3.934 3.636l-2.05.203a75.011 75.011 0 0 1-14.853 0l-2.05-.203a4.44 4.44 0 0 1-3.933-3.637 41.167 41.167 0 0 1-.184-13.351l.17-1.13c.105-.695.355-1.36.734-1.952Zm5.473-5.478a52.327 52.327 0 0 1 14.433 0 1.433 1.433 0 0 1 1.145.925l.844 2.305-.229-.029-1.63-.161a74.326 74.326 0 0 0-14.693 0l-1.63.161a2.962 2.962 0 0 0-.228.029l.843-2.305a1.433 1.433 0 0 1 1.145-.925Zm-3.307 6.733.03.012.039-.105a2.491 2.491 0 0 1 1.725-.952l1.63-.161a71.68 71.68 0 0 1 14.2 0l1.63.161c.7.069 1.315.425 1.725.95l.038.107.03-.012a2.5 2.5 0 0 1 .428 1.067l.17 1.13a38.66 38.66 0 0 1-.173 12.54 1.94 1.94 0 0 1-1.717 1.59l-2.051.203a72.776 72.776 0 0 1-14.36 0l-2.05-.203a1.94 1.94 0 0 1-1.719-1.59 38.666 38.666 0 0 1-.173-12.54l.17-1.13c.058-.384.205-.75.428-1.067Z" clip-rule="evenodd"/>
    <path fill="#999" d="M34.857 71h-.56L31.2 66.296V71h-.56v-5.592h.56l3.096 4.696v-4.696h.56V71Zm3.18.064c-.41 0-.781-.09-1.112-.272a2.067 2.067 0 0 1-.776-.784c-.187-.341-.28-.739-.28-1.192 0-.453.096-.848.288-1.184a1.98 1.98 0 0 1 .784-.784c.33-.187.701-.28 1.112-.28.41 0 .781.093 1.112.28.336.181.597.443.784.784.192.336.288.73.288 1.184 0 .448-.096.843-.288 1.184a2.02 2.02 0 0 1-.792.792 2.32 2.32 0 0 1-1.12.272Zm0-.488c.288 0 .555-.064.8-.192.245-.133.443-.33.592-.592.155-.267.232-.592.232-.976s-.075-.707-.224-.968a1.439 1.439 0 0 0-.592-.592 1.65 1.65 0 0 0-.8-.2c-.288 0-.555.067-.8.2a1.437 1.437 0 0 0-.592.592c-.144.261-.216.584-.216.968s.072.71.216.976c.15.261.344.459.584.592.245.128.512.192.8.192Zm5.696-4.768a.393.393 0 0 1-.288-.12.402.402 0 0 1-.12-.296c0-.117.04-.213.12-.288.08-.08.176-.12.288-.12.112 0 .208.04.288.12.08.075.12.17.12.288 0 .117-.04.216-.12.296a.393.393 0 0 1-.288.12Zm.28.824V71h-.56v-4.368h.56Zm6.468-.08c.512 0 .928.163 1.248.488.326.32.488.787.488 1.4V71h-.552v-2.496c0-.475-.114-.837-.344-1.088-.23-.25-.541-.376-.936-.376-.41 0-.738.136-.984.408-.245.272-.368.667-.368 1.184V71h-.552v-2.496c0-.475-.114-.837-.344-1.088-.23-.25-.544-.376-.944-.376-.41 0-.738.136-.984.408-.245.272-.368.667-.368 1.184V71h-.56v-4.368h.56v.752c.139-.272.336-.477.592-.616.256-.144.542-.216.856-.216.379 0 .71.09.992.272.288.181.496.448.624.8.118-.347.318-.61.6-.792.288-.187.614-.28.976-.28Zm2.724 2.256c0-.448.088-.84.264-1.176a1.92 1.92 0 0 1 .744-.784 2.1 2.1 0 0 1 1.08-.28c.416 0 .773.096 1.072.288.304.192.523.437.656.736v-.96h.56V71h-.56v-.968a1.77 1.77 0 0 1-.664.744c-.299.192-.656.288-1.072.288-.395 0-.752-.093-1.072-.28a1.976 1.976 0 0 1-.744-.792 2.548 2.548 0 0 1-.264-1.184Zm3.816.008c0-.352-.072-.661-.216-.928a1.582 1.582 0 0 0-1.408-.832c-.31 0-.587.07-.832.208-.245.139-.44.341-.584.608-.139.261-.208.573-.208.936 0 .357.07.672.208.944.144.267.339.472.584.616.245.139.523.208.832.208a1.582 1.582 0 0 0 1.408-.832c.144-.267.216-.576.216-.928Zm3.67-2.248c.411 0 .768.096 1.072.288.304.192.523.435.656.728v-.952h.56v4.48c0 .4-.088.755-.264 1.064-.17.31-.41.547-.72.712a2.15 2.15 0 0 1-1.056.256c-.56 0-1.026-.133-1.4-.4a1.702 1.702 0 0 1-.688-1.088h.552c.096.304.278.547.544.728.272.181.603.272.992.272.283 0 .536-.061.76-.184.224-.117.4-.293.528-.528.128-.235.192-.512.192-.832v-1.08c-.138.299-.36.547-.664.744-.298.192-.653.288-1.064.288a2.1 2.1 0 0 1-1.08-.28 1.976 1.976 0 0 1-.744-.792 2.548 2.548 0 0 1-.264-1.184c0-.448.088-.84.264-1.176a1.92 1.92 0 0 1 .744-.784 2.1 2.1 0 0 1 1.08-.28Zm1.728 2.248c0-.352-.072-.661-.216-.928a1.533 1.533 0 0 0-.592-.616 1.583 1.583 0 0 0-.816-.216c-.309 0-.586.07-.832.208-.245.139-.44.341-.584.608a1.978 1.978 0 0 0-.208.936c0 .357.07.672.208.944.144.267.339.472.584.616.246.139.523.208.832.208a1.58 1.58 0 0 0 1.408-.832c.144-.267.216-.576.216-.928Zm5.79-.224c0 .192-.005.339-.015.44H64.57c.016.33.096.613.24.848s.333.413.568.536c.234.117.49.176.768.176.362 0 .666-.088.912-.264.25-.176.416-.413.496-.712h.592a1.861 1.861 0 0 1-.688 1.048c-.347.267-.784.4-1.312.4-.41 0-.779-.09-1.104-.272a2.011 2.011 0 0 1-.768-.784c-.181-.341-.272-.739-.272-1.192 0-.453.09-.85.272-1.192a1.89 1.89 0 0 1 .76-.784 2.245 2.245 0 0 1 1.112-.272c.416 0 .778.09 1.088.272.315.181.555.427.72.736.17.304.256.643.256 1.016Zm-.567-.016c.005-.325-.061-.603-.2-.832a1.297 1.297 0 0 0-.552-.52 1.694 1.694 0 0 0-.768-.176c-.416 0-.77.133-1.064.4-.294.267-.456.643-.488 1.128h3.072Z"/>
  </g>
  <defs>
    <clipPath id="a">
      <path fill="#fff" d="M0 0h100v100H0z"/>
    </clipPath>
  </defs>
</svg>
