<svg width="16" height="17" viewBox="0 0 16 17" fill="none" xmlns="http://www.w3.org/2000/svg">
<g clip-path="url(#clip0_799_158)">
<path d="M5.57338 0.859622C3.97473 1.41421 2.59606 2.46683 1.63987 3.86287C0.683675 5.25892 0.200366 6.9248 0.26093 8.61583C0.321493 10.3069 0.922737 11.9339 1.97635 13.258C3.02996 14.582 4.4804 15.5333 6.11463 15.9721C7.43953 16.314 8.82764 16.329 10.1596 16.0159C11.3663 15.7448 12.4819 15.1651 13.3971 14.3334C14.3497 13.4413 15.0412 12.3065 15.3971 11.0509C15.784 9.68546 15.8529 8.24954 15.5984 6.85337H8.15838V9.93962H12.4671C12.381 10.4319 12.1965 10.9017 11.9246 11.3209C11.6527 11.7402 11.2989 12.1003 10.8846 12.3796C10.3585 12.7277 9.76537 12.9618 9.14338 13.0671C8.51956 13.1831 7.8797 13.1831 7.25588 13.0671C6.62361 12.9364 6.0255 12.6754 5.49963 12.3009C4.65481 11.7029 4.02047 10.8533 3.68713 9.87337C3.34815 8.87511 3.34815 7.79288 3.68713 6.79462C3.92441 6.09489 4.31667 5.45779 4.83463 4.93087C5.42737 4.31681 6.17779 3.87787 7.00357 3.66222C7.82935 3.44657 8.69858 3.46254 9.51588 3.70837C10.1543 3.90436 10.7382 4.24679 11.2209 4.70837C11.7067 4.22504 12.1917 3.74046 12.6759 3.25462C12.9259 2.99337 13.1984 2.74462 13.4446 2.47712C12.7078 1.79147 11.843 1.25794 10.8996 0.907122C9.18176 0.283359 7.3021 0.266596 5.57338 0.859622Z" fill="white"/>
<path d="M5.57348 0.859741C7.30206 0.266312 9.18171 0.282634 10.8997 0.905991C11.8432 1.2592 12.7077 1.79529 13.4435 2.48349C13.1935 2.75099 12.9297 3.00099 12.6747 3.26099C12.1897 3.74516 11.7051 4.22766 11.221 4.70849C10.7383 4.24691 10.1544 3.90448 9.51598 3.70849C8.69895 3.46179 7.82975 3.4449 7.00375 3.65967C6.17775 3.87444 5.42687 4.31257 4.83348 4.92599C4.31552 5.45291 3.92326 6.09001 3.68598 6.78974L1.09473 4.78349C2.02224 2.94419 3.62816 1.53727 5.57348 0.859741Z" fill="#E33629"/>
<path d="M0.407926 6.77119C0.547203 6.08093 0.778431 5.41247 1.09543 4.78369L3.68668 6.79494C3.34769 7.7932 3.34769 8.87543 3.68668 9.87369C2.82334 10.5404 1.95959 11.2104 1.09543 11.8837C0.301864 10.3041 0.0598419 8.50432 0.407926 6.77119Z" fill="#F8BD00"/>
<path d="M8.15876 6.85205H15.5988C15.8533 8.24822 15.7844 9.68414 15.3975 11.0496C15.0416 12.3051 14.3501 13.44 13.3975 14.3321C12.5613 13.6796 11.7213 13.0321 10.885 12.3796C11.2996 12.0999 11.6535 11.7394 11.9254 11.3197C12.1973 10.9 12.3817 10.4297 12.4675 9.93705H8.15876C8.15751 8.90955 8.15876 7.8808 8.15876 6.85205Z" fill="#587DBD"/>
<path d="M1.09375 11.8835C1.95792 11.2169 2.82167 10.5469 3.685 9.87354C4.01901 10.8538 4.65426 11.7034 5.5 12.301C6.02751 12.6739 6.62691 12.9327 7.26 13.061C7.88382 13.177 8.52368 13.177 9.1475 13.061C9.76949 12.9557 10.3626 12.7216 10.8888 12.3735C11.725 13.026 12.565 13.6735 13.4012 14.326C12.4861 15.1582 11.3705 15.7384 10.1637 16.0098C8.83176 16.3229 7.44365 16.3079 6.11875 15.966C5.07088 15.6862 4.09209 15.193 3.24375 14.5173C2.34583 13.8044 1.61244 12.906 1.09375 11.8835Z" fill="#319F43"/>
</g>
<defs>
<clipPath id="clip0_799_158">
<rect width="16" height="16" fill="white" transform="translate(0 0.333496)"/>
</clipPath>
</defs>
</svg>
