<svg width="17" height="19" viewBox="0 0 17 19" fill="none" xmlns="http://www.w3.org/2000/svg">
<path d="M2.27783 10.2226C2.27783 9.75111 2.46513 9.29892 2.79853 8.96552C3.13193 8.63213 3.58411 8.44482 4.05561 8.44482H12.9445C13.416 8.44482 13.8682 8.63213 14.2016 8.96552C14.535 9.29892 14.7223 9.75111 14.7223 10.2226V15.5559C14.7223 16.0274 14.535 16.4796 14.2016 16.813C13.8682 17.1464 13.416 17.3337 12.9445 17.3337H4.05561C3.58411 17.3337 3.13193 17.1464 2.79853 16.813C2.46513 16.4796 2.27783 16.0274 2.27783 15.5559V10.2226Z" stroke="#020507" stroke-width="2" stroke-linecap="round" stroke-linejoin="round"/>
<path d="M4.94434 8.44461V4.88905C4.94434 3.94606 5.31894 3.04169 5.98573 2.37489C6.65253 1.7081 7.5569 1.3335 8.49989 1.3335C9.44288 1.3335 10.3473 1.7081 11.014 2.37489C11.6808 3.04169 12.0554 3.94606 12.0554 4.88905V8.44461M7.611 12.8891C7.611 13.1248 7.70465 13.3509 7.87135 13.5176C8.03805 13.6843 8.26414 13.7779 8.49989 13.7779C8.73564 13.7779 8.96173 13.6843 9.12843 13.5176C9.29513 13.3509 9.38878 13.1248 9.38878 12.8891C9.38878 12.6533 9.29513 12.4272 9.12843 12.2605C8.96173 12.0938 8.73564 12.0002 8.49989 12.0002C8.26414 12.0002 8.03805 12.0938 7.87135 12.2605C7.70465 12.4272 7.611 12.6533 7.611 12.8891Z" stroke="#020507" stroke-width="2" stroke-linecap="round" stroke-linejoin="round"/>
</svg>
