<svg width="16" height="22" viewBox="0 0 16 22" fill="none" xmlns="http://www.w3.org/2000/svg">
<path d="M1.72754 20.9334V18.8001C1.72754 17.6685 2.17706 16.5832 2.97722 15.7831C3.77737 14.9829 4.86262 14.5334 5.99421 14.5334H10.2609C11.3925 14.5334 12.4777 14.9829 13.2779 15.7831C14.078 16.5832 14.5275 17.6685 14.5275 18.8001V20.9334M3.86087 6.00006C3.86087 7.13166 4.31039 8.2169 5.11055 9.01705C5.91071 9.81721 6.99595 10.2667 8.12754 10.2667C9.25913 10.2667 10.3444 9.81721 11.1445 9.01705C11.9447 8.2169 12.3942 7.13166 12.3942 6.00006C12.3942 4.86847 11.9447 3.78323 11.1445 2.98308C10.3444 2.18292 9.25913 1.7334 8.12754 1.7334C6.99595 1.7334 5.91071 2.18292 5.11055 2.98308C4.31039 3.78323 3.86087 4.86847 3.86087 6.00006Z" stroke="#020507" stroke-width="2" stroke-linecap="round" stroke-linejoin="round"/>
</svg>
