<svg xmlns="http://www.w3.org/2000/svg" width="500" height="500" fill="none" viewBox="0 0 500 500">
  <path fill="#007AFF" d="M176 112c3.225 2.709 6.177 5.644 9.135 8.64l2.611 2.597c2.368 2.358 4.726 4.725 7.081 7.096 2.55 2.564 5.112 5.116 7.672 7.669 5.005 4.995 9.999 10 14.99 15.009a13101.85 13101.85 0 0 0 17.475 17.495 29616.608 29616.608 0 0 1 31.182 31.229 28755.761 28755.761 0 0 0 30.229 30.269l1.883 1.883 1.879 1.879a56065.038 56065.038 0 0 1 34.472 34.501c4.056 4.061 8.113 8.121 12.171 12.179 4.947 4.949 9.891 9.902 14.83 14.859 2.518 2.527 5.037 5.052 7.561 7.573 2.739 2.737 5.471 5.482 8.202 8.228l2.403 2.393c6.18 6.234 11.776 12.434 15.036 20.689l1.208 2.98c3.893 11.247 2.651 23.021-2.02 33.832-2.042 3.613-4.351 6.81-7 10l-1.586 1.961c-7.117 7.95-17.88 12.498-28.406 13.254-14.172.417-25.221-3.533-35.559-13.178l-1.687-1.568c-8.722-8.171-17.125-16.676-25.578-25.124l-5.912-5.897c-5.319-5.305-10.633-10.614-15.947-15.923l-9.974-9.963a72152.909 72152.909 0 0 1-27.677-27.651l-1.782-1.78-1.785-1.785-3.58-3.578-1.793-1.793a39150.464 39150.464 0 0 0-28.841-28.796 36081.995 36081.995 0 0 1-29.687-29.651 16288.45 16288.45 0 0 0-16.639-16.613 8196.02 8196.02 0 0 1-14.146-14.134 3057.677 3057.677 0 0 0-7.209-7.198 2512.175 2512.175 0 0 1-7.827-7.83l-2.281-2.257c-10.691-10.791-17.113-21.581-17.604-37.058.426-13.798 6.169-25.005 16.02-34.512C136.01 97.57 157.409 99.3 176 112Zm-2 158c9.169 7.902 17.673 16.535 26.214 25.1l4.143 4.143c3.712 3.712 7.421 7.427 11.13 11.142 3.89 3.897 7.782 7.79 11.675 11.684 7.354 7.357 14.705 14.716 22.056 22.077 8.375 8.386 16.753 16.77 25.132 25.154A209799.1 209799.1 0 0 1 326 421c-1.654 4.509-3.923 7.466-7.312 10.812l-1.606 1.589c-14.951 14.299-34.844 21.143-55.325 20.952-27.642-.824-45.75-15.21-64.518-33.953l-2.783-2.768a5803.053 5803.053 0 0 1-7.456-7.431l-4.672-4.662c-4.891-4.877-9.78-9.756-14.667-14.639a11121.16 11121.16 0 0 0-16.851-16.8 8486.91 8486.91 0 0 1-13.094-13.061 3358.493 3358.493 0 0 0-7.794-7.769c-2.901-2.882-5.79-5.776-8.679-8.67a8595.57 8595.57 0 0 0-2.579-2.551c-10.568-10.643-16.694-21.299-17.164-36.612.429-13.895 6.221-25.053 16.168-34.582C134.27 257.646 157.04 257.577 174 270ZM282.167 60.64c6.333 4.975 12.094 10.33 17.777 16.03l2.843 2.826c2.543 2.53 5.081 5.068 7.616 7.606 2.128 2.129 4.259 4.255 6.39 6.38 5.03 5.02 10.054 10.043 15.075 15.07 5.16 5.167 10.33 10.324 15.504 15.477a8017.32 8017.32 0 0 1 13.374 13.353c2.65 2.653 5.303 5.303 7.961 7.947 2.964 2.949 5.916 5.91 8.866 8.872l2.636 2.612c6.279 6.334 11.928 12.987 15.103 21.437l.926 2.391c3.602 11.156 2.367 22.701-2.238 33.359-2.042 3.613-4.351 6.81-7 10l-1.586 1.961c-7.117 7.95-17.88 12.498-28.406 13.254-14.444.425-25.405-3.701-35.902-13.518l-1.713-1.594c-6.721-6.29-13.222-12.799-19.72-19.317l-4.144-4.143c-3.708-3.708-7.413-7.419-11.117-11.13-3.887-3.893-7.778-7.784-11.667-11.675a65462.91 65462.91 0 0 1-22.035-22.056 99162.27 99162.27 0 0 0-25.11-25.132C208.397 113.437 191.197 96.22 174 79c4.662-12.56 18.637-20.787 30.102-26.563 25.708-11.395 55.536-8.847 78.065 8.203Z"/>
</svg>
