<svg xmlns="http://www.w3.org/2000/svg" width="232" height="247" fill="none" viewBox="0 0 232 247">
  <path fill="#F6F6F7" d="m134.81 134.981-9.321.404-3.255 7.413 15.239-1.357-2.663-6.46Z"/>
  <path fill="#007AFF" d="M82.773 51.029a.43.43 0 1 0-.568.647l13.53 11.92a.428.428 0 0 0 .608-.04.432.432 0 0 0-.039-.608l-13.53-11.92ZM54.946 27.663a.43.43 0 0 0 .607-.04.432.432 0 0 0-.039-.608l-8.168-7.195a.43.43 0 1 0-.569.647l8.169 7.196Zm4.696 23.366L46.11 62.948a.432.432 0 0 0 .569.647l13.53-11.92a.432.432 0 0 0-.568-.646ZM87.183 27.77a.428.428 0 0 0 .284-.107l8.836-7.784a.432.432 0 0 0-.568-.648l-8.837 7.784a.432.432 0 0 0 .285.755Z"/>
  <path fill="#FFB197" d="M87.412 87.932c.695-1.656.447-4.39.393-6.225-.04-1.357.18-2.553.36-3.29l.113-.39a1.025 1.025 0 0 0-.832-1.298c-.756-.114-1.601.13-1.875.984l-1.237 3.896-3.163-9.625a1.31 1.31 0 0 0-1.56-.863l-.04.01a1.312 1.312 0 0 0-.924 1.69l1.804 5.477a1.333 1.333 0 0 0-1.68-.847 1.335 1.335 0 0 0-.845 1.681 1.333 1.333 0 0 0-1.68-.847 1.336 1.336 0 0 0-.845 1.682l.289.877a1.333 1.333 0 0 0-1.68-.847 1.336 1.336 0 0 0-.846 1.681l1.322 4.01c.06.184.159.344.282.478.213.569.392 1.019.522 1.301.827 1.804 2.32 2.931 3.48 3.576l2.174 6.005c3.445-2.207 6.99-2.838 8.897-3.014l-2.428-6.102Z"/>
  <path fill="#FF9497" d="m135.568 174.939.914 5.335h7.147l.592-6.834-8.653 1.499Zm-21.147-.038a18.558 18.558 0 0 1-.194-.943l-9.039.691v.477a5.144 5.144 0 0 0 5.141 5.148h5.351l-1.259-5.373Zm44.496-21.373-3.597 26.746h4.668c7.673 0 14.165-5.654 15.251-13.259.543-3.801.977-8.336 1.097-13.487h-17.419Zm17.79-31.937c.5.899.869 1.82 1.132 2.748l.148-2.879c.274-5.311-3.051-9.935-7.79-11.578l6.51 11.709Zm-10.98 18.713h11.292l.413-8.006c-1.789 4.543-6.152 8.006-11.705 8.006Z"/>
  <path fill="#4F667D" d="M139.754 146.916h-16.795a3.407 3.407 0 0 1-2.903 2.801l-24.889 3.349c-10.41 1.479-17.311 11.584-14.91 21.835l9.849 42.034s12.372.113 17.796-4.073l-6.499-37.923 12.826-.981c-1.78-9.92 5.013-19.459 15.104-20.892l10.495-1.491-.074-4.659Z"/>
  <path fill="#4F667D" d="M145.622 157.276c-3.386-.289-5.728-1.443-5.728-1.443l-.067-4.257-10.496 1.49c-10.411 1.479-17.311 11.584-14.909 21.835l9.848 42.034s10.576.096 16.458-3.198l.5-5.766-5.661-33.032 8.654-1.499 1.401-16.164Z"/>
  <path fill="#FFB197" d="M140.629 72.455c-1.313-1.23-3.474.679-3.474.679 0-1.867.678-3.904.678-3.904-8.56.933-13.733-6.952-13.733-6.952-.551.966-2.129 4.261-2.129 10.332 0 4.56 1.933 8.207 5.152 9.187l-.646 4.512-2.143 45.304 8.022-.158-.159-1.643 7.376-1.026-1.258-43.722-.524-7.073c3.487.415 4.059-4.393 2.838-5.536Z"/>
  <path fill="#1C3C4F" d="M147.531 81.407c-.942-1.499-2.245-4.212-2.172-7.665.108-5.112.573-23.626-20.188-19.826-1.983.363-3.242 2.322-2.792 4.29.108.473.232.944.374 1.376 0 0-4.881 2.986-3.44 6.339 1.086 2.526 2.195 3.728 2.676 5.529.184-5.333 1.594-8.27 2.109-9.172 0 0 5.173 7.886 13.733 6.952 0 0-.678 2.037-.678 3.904 0 0 2.161-1.91 3.474-.679 1.221 1.144.649 5.951-2.839 5.536l.525 7.074 4.306 1.774c.171.015.337.032.507.048a24.096 24.096 0 0 0 4.06-2.964c.712-.64.854-1.704.345-2.516Zm-25.407-6.668c-.36 2.177-1.538 4.677-2.763 6.935a3.04 3.04 0 0 0 1.118 4.063c1.074.64 2.46 1.374 4.083 2.024l1.914-1.452.646-4.512c-2.699-.822-4.489-3.52-4.998-7.058Z"/>
  <path fill="#F6F6F7" d="M199.028 146.916h-8.467l13.396 99.628h3.705l-8.634-99.628Z"/>
  <path fill="#F4A37A" d="m116.617 184.255-6.729-1.988-3.221 23.378 1.236 7.217c-.551.425-1.175.806-1.85 1.147l2.221 10.34c.286 1.331.856 2.574 1.61 3.705l7.516-40.458-.783-3.341Z"/>
  <path fill="#C46C3F" d="m116.864 185.318-.249-1.062-6.729-1.989-.337 2.445a6.143 6.143 0 0 0 2.667.606h4.648Z"/>
  <path fill="#F6F6F7" d="m146.412 246.544 13.397-99.628h-8.468l-8.634 99.628h3.705Z"/>
  <path fill="#E4E6EC" d="m142.705 246.544 8.635-99.628h-4.819l-8.634 99.628h4.818Zm43.928-93.016 12.508 93.016h4.818l-12.508-93.016h-4.818Z"/>
  <path fill="#F6F6F7" d="m191.451 153.528-.89-6.612h-30.754l-.889 6.612h32.533Zm-120.593-6.612h-8.467l13.397 99.628h3.704l-8.634-99.628Zm-52.62 99.628 13.397-99.628h-8.467l-8.635 99.628h3.705Z"/>
  <path fill="#E4E6EC" d="m18.35 146.915-8.635 99.629h4.818l8.635-99.629h-4.819Zm40.109 6.613 12.508 93.016h4.819l-12.508-93.016h-4.819Z"/>
  <path fill="#F6F6F7" d="m63.279 153.528-.89-6.612H31.635l-.889 6.612H63.28Z"/>
  <path fill="#1C3C4F" d="M102.596 171.543a.456.456 0 1 0-.865-.287 8.058 8.058 0 0 0-.328 3.683l.923-.071a7.128 7.128 0 0 1 .27-3.325Zm34.34-.557a.456.456 0 1 0-.852-.321 9.027 9.027 0 0 0-.507 4.272l.898-.155a8.129 8.129 0 0 1 .461-3.796Z"/>
  <path fill="#FFB197" d="M110.067 228.331c-.849-1.203-1.488-2.542-1.797-3.982l-2.221-10.34c-3.738 1.892-9.054 2.562-12.503 2.798l2.536 11.488a8.816 8.816 0 0 1-.212 4.643c-.702 2.144-2.103 5.012-4.779 6.401-4.576 2.376-9.746 2.104-9.068 7.205h16.272l8.136-6.186 1.526 6.186h5.192l-1.119-12.842a10.976 10.976 0 0 0-1.963-5.371Z"/>
  <path fill="#1C3C4F" d="M110.465 228.941c-.293.994-1.044 2.148-2.848 2.93-2.653 1.15-7.665 5.468-10.426 7.949-1.969 1.768-4.67 2.552-7.248 1.958-.807-.186-1.602-.509-2.308-1.023-3.347 1.162-6.12 1.968-5.612 5.789h16.272l8.136-6.187 1.526 6.187h5.192l-1.119-12.843a10.987 10.987 0 0 0-1.565-4.76Z"/>
  <path fill="#FFB197" d="M127.715 216.806v.001l2.535 11.488a8.81 8.81 0 0 1-.212 4.643c-.702 2.143-2.103 5.012-4.779 6.401-4.576 2.376-9.746 2.104-9.068 7.205h16.272l5.807-4.415 2.46-28.392c-3.75 2.101-9.406 2.822-13.015 3.069Z"/>
  <path fill="#1C3C4F" d="M139.014 233.535c-2.584 1.823-5.69 4.519-7.655 6.285-1.969 1.768-4.671 2.552-7.248 1.958-.807-.186-1.602-.509-2.308-1.023-3.347 1.162-6.12 1.969-5.612 5.789h16.272l5.807-4.416.744-8.593Z"/>
  <path fill="#E85D62" d="M162.293 170.372a.455.455 0 0 1-.123-.895c1.409-.398 2.525-.914 3.512-1.624 3.081-2.216 4.413-6.529 4.988-9.756a.456.456 0 1 1 .897.16c-.605 3.394-2.024 7.942-5.353 10.337-1.076.774-2.282 1.333-3.797 1.761a.481.481 0 0 1-.124.017Z"/>
  <path fill="#4F667D" d="M162.334 153.528h-3.416l-2.281 16.964a7.303 7.303 0 0 0 3.154-3.384c1.463-3.205 3.133-8.222 2.543-13.58Z"/>
  <path fill="#FFC71C" d="m176.709 121.591-15.938-28.663a6.478 6.478 0 0 0-3.451-2.949c-2.825-1.021-8.044-2.586-14.701-3.14l-4.306-1.774 1.258 43.722-7.376 1.026 1.017 10.49h32.513c9.59 0 15.649-10.321 10.984-18.712Z"/>
  <path fill="#F99132" d="M154.386 97.806a.457.457 0 0 1-.285-.708l2.315-3.34a.455.455 0 1 1 .748.52l-2.315 3.34a.455.455 0 0 1-.463.188Z"/>
  <path fill="#FFC71C" d="m122.534 89.3-8.517 2.79a7.875 7.875 0 0 0-4.91 4.69l-7.506 19.761-10.34-22.573s-6.581-.198-12.083 4.368l3.127 9.634h10.096c.79 0 1.476.547 1.652 1.319l6.253 27.316h4.883s6.426-6.71 9.193-15.394c1.318 4.4 1.594 8.725 1.504 12.146l.01-.001h2.405l.445-.32a7.442 7.442 0 0 1 4.192-1.396l1.394-.027 2.143-45.304-3.941 2.991Z"/>
  <path fill="#F99132" d="M113.931 119.694c-2.998-9.861-.06-15.896-.03-15.955a.456.456 0 1 0-.813-.412c-.129.256-3.141 6.395-.029 16.633.285.938.53 1.909.744 2.905.2-.525.405-1.113.579-1.654-.135-.531-.295-1.003-.451-1.517Z"/>
  <path fill="#FFC71C" d="M120.054 149.717a3.407 3.407 0 0 0 2.903-2.802h-9.492l-1.016 3.825 7.605-1.023Zm19.841 6.116s2.342 1.154 5.728 1.443l.898-10.36h-6.767l.141 8.917Z"/>
  <path fill="#F99132" d="M101.59 116.516c.167.698.33 1.615.376 2.658a.456.456 0 0 0 .455.436h.02a.456.456 0 0 0 .435-.476 14.795 14.795 0 0 0-.736-4.01l-.538 1.417-.012-.025Z"/>
  <path fill="#FFB197" d="m132.357 131.456-9.417.184a7.435 7.435 0 0 0-4.192 1.397l-7.365 5.293c-.858.617-.422 1.973.634 1.973h12.835c2.43 0 3.786-1.849 3.786-1.849l4.375-.223-.656-6.775Z"/>
  <path fill="#EF7756" d="m128.637 138.455 1.105-.057.633-1.024a.456.456 0 1 0-.775-.48l-.965 1.563.002-.002Zm-15.87 2.985a.456.456 0 0 1-.263-.828l7.277-5.144a.456.456 0 1 1 .525.746l-7.277 5.143a.45.45 0 0 1-.262.083Z"/>
  <path fill="#EF9E89" d="M113.778 134.62c-.249.508-.34 1.169.005 1.986l4.519-3.249h-2.405c-.884 0-1.729.468-2.119 1.263Z"/>
  <path fill="#EF7756" d="M115.751 142.401a.457.457 0 0 1-.246-.841l6.389-4.093a.455.455 0 0 1 .629.138.458.458 0 0 1-.138.631l-6.389 4.093a.45.45 0 0 1-.245.072Z"/>
  <path fill="#F6F6F7" d="m139.571 128.787-.828-28.799c-5.444 3.887-10.74 2.243-12.946.644l-1.465 30.981 8.023-.157-.159-1.643 7.375-1.026Z"/>
  <path fill="#EF7756" d="m84.335 81.609-.319-.968c-.475.4-1.46 1.371-1.898 2.798a1.33 1.33 0 0 1-.175.829c-.178 1.433.288 2.892 1.398 4.339a.454.454 0 0 0 .638.084c.2-.154.237-.44.084-.64-.985-1.285-1.392-2.554-1.208-3.773.189-1.248.965-2.167 1.48-2.669Z"/>
  <path fill="#F6F6F7" d="M139.755 146.916H122.96a3.407 3.407 0 0 1-.98 1.863c.81 1.161 2.846 3.358 7.107 4.329.083-.013.164-.03.247-.042l10.495-1.491-.074-4.659Z"/>
  <path fill="#F4A37A" d="m166.622 182.142-8.138 2.113 11.571 62.289h5.398l-8.831-64.402Z"/>
  <path fill="#C46C3F" d="m166.622 182.142-8.138 2.114.198 1.062h4.468a7.119 7.119 0 0 0 3.761-1.071l-.289-2.105Z"/>
  <path fill="#FF8B7E" d="m136.482 180.274.683 3.981h6.119l.345-3.981h-7.147Zm32.662-3.026a15.329 15.329 0 0 1-9.156 3.026h-4.668l-.535 3.981h8.364c3.361 0 6.11-2.753 6.11-6.118 0-.307-.042-.604-.115-.889Zm-53.461 3.026h-5.352a5.113 5.113 0 0 1-3.249-1.16c0 2.828 2.311 5.141 5.134 5.141h4.4l-.933-3.981Z"/>
  <path fill="#FF9497" d="M49.689 122.086h-14.7a.779.779 0 0 0-.764.934c1.055 5.13 1.867 11.263 2.385 17.284h11.458c.518-6.021 1.33-12.154 2.385-17.284a.779.779 0 0 0-.764-.934Z"/>
  <path fill="#FF8387" d="M49.386 129.076c.182-1.199.376-2.372.58-3.509H34.715c.204 1.137.398 2.31.58 3.509h14.091Z"/>
  <path fill="#F6F6F7" d="M38.701 111.539h-2.429a.457.457 0 0 1 0-.913h2.43a1.978 1.978 0 0 0 1.973-1.977.456.456 0 1 1 .912 0 2.89 2.89 0 0 1-2.886 2.89Zm3.054 7.863a.456.456 0 0 1-.456-.456c0-1.09-.885-1.977-1.974-1.977h-6.384a3.173 3.173 0 0 1-3.168-3.172 3.173 3.173 0 0 1 3.168-3.171.456.456 0 0 1 0 .912 2.26 2.26 0 0 0 0 4.519h6.384a2.89 2.89 0 0 1 2.885 2.889.456.456 0 0 1-.455.456Z"/>
  <path fill="#FFE91D" d="M71.24 21.662c-7.063.015-12.963 5.683-13.254 12.749a13.299 13.299 0 0 0 5.872 11.61 3.02 3.02 0 0 1 1.317 2.51v2.452a2.05 2.05 0 0 0 2.049 2.052h8.088a2.05 2.05 0 0 0 2.05-2.052V48.57c0-1.017.483-1.986 1.325-2.554a13.298 13.298 0 0 0 5.875-11.043c0-7.361-5.968-13.327-13.323-13.311Z"/>
  <path fill="#F6F6F7" d="M75.312 53.035h-8.088c-.463 0-.889-.156-1.232-.415v3.659c0 1.47 1.19 2.66 2.657 2.66h5.238a2.659 2.659 0 0 0 2.657-2.66v-3.66c-.343.26-.769.416-1.232.416Z"/>
  <path fill="#91DFF2" d="M73.887 58.94H68.65c-.213 0-.419-.028-.617-.075l.777 1.919a1.5 1.5 0 0 0 1.413 1.002h2.09c.636 0 1.203-.401 1.413-1.002l.777-1.919a2.651 2.651 0 0 1-.616.075Z"/>
  <path fill="#D5D8E0" d="M76.544 55.336H65.993v.862h10.552v-.862Z"/>
  <path fill="#E8B931" d="M76.612 36.052c-1.135.081-2.024 1.071-2.024 2.254v1.252h-6.64v-1.252c0-1.183-.89-2.173-2.025-2.254a2.186 2.186 0 0 0-2.337 2.341c.08 1.137 1.07 2.027 2.25 2.027h1.25v1.3c0 1.032.37 2.03 1.04 2.813.537.627.832 1.426.832 2.252v6.25h.861v-6.25c0-1.031-.369-2.03-1.04-2.813a3.463 3.463 0 0 1-.831-2.252v-1.3h6.64v1.3c0 .826-.296 1.625-.832 2.252a4.327 4.327 0 0 0-1.04 2.813v6.25h.861v-6.25c0-.826.296-1.625.832-2.252a4.326 4.326 0 0 0 1.04-2.813v-1.3h1.25c1.181 0 2.17-.89 2.25-2.027a2.191 2.191 0 0 0-.633-1.706 2.181 2.181 0 0 0-1.704-.635Zm-9.525 3.506h-1.25c-.732 0-1.343-.539-1.392-1.226a1.324 1.324 0 0 1 1.418-1.42c.686.05 1.224.661 1.224 1.394v1.252Zm9.612 0h-1.25v-1.252c0-.733.538-1.345 1.224-1.394a1.326 1.326 0 0 1 1.418 1.42c-.05.687-.66 1.226-1.392 1.226Z"/>
  <path fill="#48CBFF" d="M38.559 25.308c6.98 0 12.637-5.665 12.637-12.654S45.538 0 38.559 0c-6.98 0-12.637 5.665-12.637 12.654s5.658 12.654 12.637 12.654Z"/>
  <path fill="#14AE5C" d="M51.196 69.746c0 6.989-5.658 12.654-12.637 12.654-6.98 0-12.637-5.665-12.637-12.654 0-6.988 5.658-12.654 12.637-12.654 6.98 0 12.637 5.666 12.637 12.654Z"/>
  <path fill="#007AFF" d="M103.856 25.308c6.979 0 12.637-5.665 12.637-12.654S110.835 0 103.856 0c-6.98 0-12.637 5.665-12.637 12.654s5.657 12.654 12.637 12.654Z"/>
  <path fill="#E4E6EC" d="M180.308 47.52h-15.187v15.723h15.187V47.52Zm0 21.84h-15.187v15.724h15.187V69.361Zm22.784 0h-15.188v15.724h15.188V69.361Zm0 31.24v-9.398h-15.188v15.724h8.871l6.317-6.326Z"/>
  <path fill="#EF7756" d="M136.528 78.426c.45.231.898.416 1.335.556l-.073-.991h.001a8.19 8.19 0 0 1-.846-.377.457.457 0 0 0-.417.812Zm-1.935 2.264a.456.456 0 0 0-.495-.767c-2.515 1.628-4.908 2.261-6.973 1.875l-.131.91a7.36 7.36 0 0 0 1.327.123c1.949 0 4.08-.723 6.272-2.142Z"/>
  <path fill="#fff" d="M101.524 13.021h-4.092v5.466h4.092v-5.466Z"/>
  <path fill="#fff" d="M105.614 9.602h-4.093v8.885h4.093V9.602Zm4.094-3.42h-4.093v12.305h4.093V6.182Z"/>
  <path fill="#4A3CA3" d="M173.735 52.418h-4.793a.485.485 0 0 1 0-.972h4.793a.485.485 0 0 1 0 .972Z"/>
  <path fill="#fff" d="M176.49 55.867h-7.548a.485.485 0 0 1 0-.972h7.548a.485.485 0 0 1 0 .972Zm0 3.449h-7.548a.485.485 0 0 1 0-.971h7.548a.485.485 0 0 1 0 .971Z"/>
  <path fill="#4A3CA3" d="M173.735 74.259h-4.793a.485.485 0 0 1 0-.972h4.793a.485.485 0 0 1 0 .972Z"/>
  <path fill="#fff" d="M176.49 77.709h-7.548a.485.485 0 0 1 0-.972h7.548a.485.485 0 0 1 0 .972Zm0 3.449h-7.548a.485.485 0 0 1 0-.972h7.548a.485.485 0 0 1 0 .972Z"/>
  <path fill="#4A3CA3" d="M196.517 74.259h-4.794a.485.485 0 0 1 0-.972h4.794a.485.485 0 0 1 0 .972Z"/>
  <path fill="#fff" d="M199.272 77.709h-7.549a.485.485 0 0 1 0-.972h7.549a.485.485 0 0 1 0 .972Zm0 3.449h-7.549a.485.485 0 0 1 0-.972h7.549a.485.485 0 0 1 0 .972Z"/>
  <path fill="#4A3CA3" d="M196.517 96.1h-4.794a.485.485 0 0 1 0-.971h4.794a.485.485 0 0 1 0 .971Z"/>
  <path fill="#fff" d="M194.395 99.55h-2.672a.485.485 0 0 1 0-.972h2.672a.485.485 0 0 1 0 .972Zm0 3.449h-2.672a.485.485 0 0 1 0-.972h2.672a.486.486 0 0 1 0 .972Z"/>
  <path fill="#FFE91D" d="m139.57 128.786-1.258-43.722 4.307 1.775s4.576 12.645 6.356 18.161l-4.633 3.564 4.237 2.97-3.434 16.477-5.575.775Zm-18.913 3.263a7.464 7.464 0 0 1 2.281-.409l1.394-.027 2.143-45.304-3.941 2.991s-3.101 7.914-4.88 17.334l3.672 2.687-4.012 2.451c.001 0 2.233 8.014 3.343 20.277Z"/>
  <path fill="#E89360" d="M167.79 140.303H7.105v6.613H167.79v-6.613Z"/>
  <path fill="#F4A37A" d="M167.791 146.916h37.465v-6.613h-37.465v6.613Z"/>
  <path fill="#E4E6EC" d="M95.641 138.454c0-1.017.831-1.849 1.847-1.849H62.572a1.853 1.853 0 0 0-1.847 1.849c0 1.017.83 1.849 1.846 1.849h34.917a1.853 1.853 0 0 1-1.847-1.849Z"/>
  <path fill="#F6F6F7" d="m111.382 138.33 2.4-1.725H97.488a1.853 1.853 0 0 0-1.847 1.849c0 1.017.83 1.849 1.846 1.849h14.529c-1.057 0-1.493-1.356-.634-1.973Z"/>
  <path fill="#fff" d="M94.053 109.289a1.696 1.696 0 1 0-3.304.758l6.078 26.558h3.479l-6.252-27.316Z"/>
  <path fill="#F6F6F7" d="M92.401 107.97H55.345a1.883 1.883 0 0 0-1.834 2.305l5.669 24.765a2.014 2.014 0 0 0 1.96 1.565h35.688l-6.079-26.558a1.697 1.697 0 0 1 1.652-2.077Z"/>
  <path fill="#E4E6EC" d="M77.587 122.6c-.418-1.852-2.076-3.054-3.704-2.685-1.628.368-2.609 2.168-2.19 4.019.417 1.852 2.076 3.054 3.704 2.685 1.628-.368 2.608-2.168 2.19-4.019Z"/>
  <path fill="#F99132" d="M168.091 127.195a9.865 9.865 0 0 0-1.814-1.144c-1.767-.875-3.811-1.289-5.914-1.197l-1.009.044.071.91.978-.042c1.95-.086 3.841.296 5.47 1.102a9.046 9.046 0 0 1 1.647 1.038.455.455 0 0 0 .64-.069.457.457 0 0 0-.069-.642Z"/>
  <path fill="#F6F6F7" d="M196.773 100.6v6.326l6.318-6.326h-6.318Z"/>
  <path fill="#EC221F" d="M102.702 78.433c5.911 0 10.702-4.798 10.702-10.716 0-5.919-4.791-10.717-10.702-10.717C96.792 57 92 61.798 92 67.717c0 5.918 4.791 10.716 10.702 10.716Z"/>
  <path fill="#FCCBBE" d="M102.703 69.871a4.372 4.372 0 0 0 4.37-4.375 4.372 4.372 0 0 0-4.37-4.376 4.372 4.372 0 0 0-4.369 4.376 4.372 4.372 0 0 0 4.369 4.375Z"/>
  <path fill="#FFE91D" d="M102.7 69.87c-3.097 0-5.879 2-7.803 5.177a10.663 10.663 0 0 0 7.803 3.386c3.078 0 5.85-1.303 7.803-3.386-1.925-3.177-4.707-5.176-7.803-5.176Z"/>
  <path fill="#83DFFF" d="M38.947 18.357a.428.428 0 0 1-.308-.13l-4.164-4.244a.431.431 0 0 1 .614-.604l4.164 4.244a.431.431 0 0 1-.306.733Zm-4.167-6.185a.431.431 0 0 1-.148-.836l7.425-2.724a.431.431 0 0 1 .296.81l-7.425 2.723a.433.433 0 0 1-.148.027Z"/>
  <path fill="#0D519B" d="M33.381 15.206a2.95 2.95 0 0 0 2.948-2.952 2.95 2.95 0 0 0-2.948-2.951 2.95 2.95 0 0 0-2.947 2.951 2.95 2.95 0 0 0 2.947 2.952Z"/>
  <path fill="#007AFF" d="M40.054 21.342a2.286 2.286 0 0 0 2.284-2.287 2.286 2.286 0 0 0-2.284-2.287 2.286 2.286 0 0 0-2.285 2.287 2.286 2.286 0 0 0 2.285 2.287Z"/>
  <path fill="#085DC5" d="M43.358 11.295a2.698 2.698 0 0 0 2.697-2.7c0-1.491-1.208-2.7-2.697-2.7a2.698 2.698 0 0 0-2.696 2.7c0 1.491 1.207 2.7 2.696 2.7Z"/>
  <path fill="#33F557" d="M35.6 72.551a6.298 6.298 0 0 1-.899-1.144l-3.036 3.04a1.446 1.446 0 0 0 0 2.044 1.442 1.442 0 0 0 2.04 0l3.037-3.04a6.293 6.293 0 0 1-1.143-.9Z"/>
  <path fill="#F6F6F7" d="M40.041 74.394a6.287 6.287 0 0 0 6.283-6.291 6.287 6.287 0 0 0-6.283-6.292 6.287 6.287 0 0 0-6.283 6.292 6.287 6.287 0 0 0 6.283 6.291Z"/>
  <path fill="#14AE5C" d="M39.44 70.554a.43.43 0 0 1-.304-.126l-1.848-1.851a.432.432 0 0 1 .609-.61l1.543 1.546 2.365-2.368a.43.43 0 1 1 .609.61l-2.67 2.673a.429.429 0 0 1-.304.126Z"/>
  <path fill="#1C3C4F" d="M231.544 247H.456a.456.456 0 0 1 0-.913h231.088a.456.456 0 0 1 0 .913Z"/>
  <path fill="#EF7756" d="m82.079 83.239-1.646-4.985a1.328 1.328 0 0 0-1.245-.864l2.026 6.135c.134.406-.126.858-.578 1.008a.906.906 0 0 1-.665-.032.73.73 0 0 1-.398-.434l-1.646-4.935a1.33 1.33 0 0 0-1.243-.908l2.023 6.13a.733.733 0 0 1-.062.585.906.906 0 0 1-.515.422.905.905 0 0 1-.665-.032.732.732 0 0 1-.399-.433l-1.375-4.053c-.18-.543-.68-.89-1.222-.908l1.732 5.246c.134.407-.125.859-.578 1.008-.223.074-.537.05-.742-.044a.758.758 0 0 1-.296-.243c.052.096.112.185.184.263.145.387.272.713.38.974a1.85 1.85 0 0 0 .76-.084c.5-.165.879-.522 1.08-.954.032.018.06.04.095.056.236.11.492.165.75.165a1.848 1.848 0 0 0 1.61-.945c.018-.034.034-.069.05-.104.033.018.062.04.096.056.237.11.492.165.75.165.195 0 .391-.032.582-.095.929-.307 1.448-1.276 1.157-2.16Z"/>
  <path fill="#F99132" d="M147.852 126.649a.488.488 0 0 0 .138.967l8.565-1.192.389-1.12-9.092 1.345Z"/>
  <path fill="#FF9497" d="m159.957 125.951-3.402.473c-.476-4.133.064-7.943.592-10.384l5.477 9.826.02.007a12.33 12.33 0 0 0-2.687.078Z"/>
  <path fill="#1C3C4F" d="M120.786 156.311a.455.455 0 0 0-.639-.081c-5.411 4.203-8.025 11.103-6.821 17.797l.912-.071c-1.184-6.391 1.301-12.991 6.468-17.005a.455.455 0 0 0 .08-.64Zm9.995-84.921c.009-.68-.462-1.236-1.053-1.244-.59-.007-1.075.537-1.084 1.216-.008.68.463 1.236 1.053 1.244.591.007 1.076-.537 1.084-1.216Zm-5.73.106c.009-.68-.463-1.236-1.053-1.243-.59-.008-1.076.537-1.084 1.216-.009.679.463 1.235 1.053 1.243.59.007 1.075-.537 1.084-1.216Z"/>
  <path fill="#EF7756" d="M127.028 77.811c-.842 0-1.386-.189-1.428-.204a.474.474 0 0 1 .316-.89c.07.025 1.679.56 3.671-.544a.473.473 0 0 1 .458.826c-1.158.643-2.221.812-3.017.812Zm-1.591-2.389a.472.472 0 0 1-.319-.821c.949-.869.987-2.462.987-2.478a.457.457 0 0 1 .479-.465.47.47 0 0 1 .464.478c-.001.082-.039 2.014-1.293 3.162a.467.467 0 0 1-.318.124Z"/>
</svg>
