<svg xmlns="http://www.w3.org/2000/svg" width="270" height="247" fill="none" viewBox="0 0 270 247">
  <path fill="#EEF3F9" d="m201.905 75.793-.607-1.38-.912 1.38h-2.462l-.823-1.258-.678 1.571c-1.106-.718-1.987-1.656-2.608-2.444l-.019-.012c-.178 5.004-.434 14.118 1.24 23.81.089.514.227 1.02.406 1.51l.084.23a1.044 1.044 0 0 1 .611-1.334l9.267-3.524 1.357-22.287c-1.705 1.847-4.856 3.738-4.856 3.738Z"/>
  <path fill="#FFB197" d="M205.529 53.915c-.818 0-1.365.682-1.713 1.39l-1.037-.546c-.412-1.686-.329-3.483.398-5.06l.025-.054c.551-1.253-.108-2.72-1.401-3.175-3.255-1.144-6.711-.844-8.918-.433a3.896 3.896 0 0 0-3.078 2.867c-1.832 7.27 1.334 14.657 5.78 14.657l.123 5.733c.012.574.314 1.104.801 1.412 2.61 1.652 6.007.106 7.596-.81a1.7 1.7 0 0 0 .85-1.552l-.347-7.766c3.938-2.09 2.625-6.663.921-6.663Z"/>
  <path fill="#1C3C4F" d="M209.956 45.487c-.113-1.342-1.123-2.42-2.447-2.677-1.145-.222-2.674-.786-4.368-2.123-3.603-2.843-6.243-2.76-10.6-2.048-4.358.71-2.64 5.561-2.64 5.561s-2.577.23-3.31 3.492c-.537 2.388 1.537 4.613 2.688 5.635a17.51 17.51 0 0 1 .525-4.421 3.9 3.9 0 0 1 3.08-2.87c2.207-.41 5.662-.71 8.916.434 1.294.454 1.953 1.923 1.401 3.176l-.024.053c-.727 1.577-.81 3.375-.398 5.06l1.037.546c.348-.708.895-1.39 1.713-1.39 1.05 0 1.949 1.736 1.566 3.557 3.211-2.318 3.127-8.83 2.861-11.985Z"/>
  <path fill="#14AE5C" d="M247.563 21.314h-31.808c-2.193 0-3.987 1.791-3.987 3.98v11.38c0 2.188 1.794 3.98 3.987 3.98h1.824v7.686l6.801-7.687h23.183c2.193 0 3.988-1.79 3.988-3.98V25.294c0-2.19-1.795-3.98-3.988-3.98Z"/>
  <path fill="#FEFEFF" d="M219.779 32.648a1.665 1.665 0 1 0 0-3.329c-.921 0-1.668.745-1.668 1.665 0 .919.747 1.664 1.668 1.664Zm7.92 0c.92 0 1.667-.745 1.667-1.665 0-.919-.747-1.664-1.667-1.664-.921 0-1.668.745-1.668 1.665 0 .919.747 1.664 1.668 1.664Zm15.838 0c.92 0 1.667-.745 1.667-1.665 0-.919-.747-1.664-1.667-1.664-.921 0-1.668.745-1.668 1.665 0 .919.747 1.664 1.668 1.664Zm-7.916 0c.92 0 1.667-.745 1.667-1.665 0-.919-.747-1.664-1.667-1.664-.921 0-1.668.745-1.668 1.665 0 .919.747 1.664 1.668 1.664Z"/>
  <path fill="#C46C3F" d="M230.555 237.434c-.072 0-.144.003-.216.005-.538-.653-.967-1.428-1.31-2.216H216.08l.997 11.327h24c.023-.275.036-.554.036-.836.001-5.173-4.455-8.28-10.558-8.28Z"/>
  <path fill="#E4E6EC" d="M227.863 231.162h-12.14l.357 4.061h12.949c-.697-1.6-1.033-3.256-1.166-4.061Z"/>
  <path fill="#C46C3F" d="M178.728 235.223c-.344.788-.773 1.563-1.311 2.216-.072-.002-.143-.005-.216-.005-6.103 0-10.558 3.107-10.558 8.28 0 .282.013.561.036.837h24l.997-11.328h-12.948Z"/>
  <path fill="#E4E6EC" d="M178.729 235.223h12.948l.357-4.061h-12.14c-.133.805-.469 2.461-1.165 4.061Z"/>
  <path fill="#4F667D" d="M221.712 138.403c-8.903 4.078-18.586 4.024-18.586 4.024l-4.302-12.043-3.938 12.294c-5.662.398-10.411-.66-13.128-1.488l-3.143 89.972h14.504l6.732-83.299 14.438 83.299h15.199l-7.776-92.759Z"/>
  <path fill="#007AFF" d="m223.663 128.608-14.285 5.433a1.047 1.047 0 0 1-1.356-.618l-1.71-4.685-.549.223a1.146 1.146 0 0 1-1.494-.657c-.228-.598.039-1.338.634-1.576a1.15 1.15 0 0 1-1.577-1.022c-.029-.48.274-.922.722-1.101l.014-.006c-.098.04-.199.065-.299.076-.647.073-1.194-.488-1.194-1.138v-.013c0-.478.291-.908.735-1.086a1.147 1.147 0 0 1-1.522-.722l-.01-.034a1.144 1.144 0 0 1 .674-1.404l.68-.267-5.095-13.952.795 24.325 4.301 12.043s12.57.07 22.235-5.98l-1.699-7.839Zm22.112-36.753L225.516 73.57a8.802 8.802 0 0 0-3.668-1.98l-11.93-3.124c.214.263.36.58.421.92l2.44 13.452-3.31 1.881 3.1 1.422-1.999 6.236 9.565-3.637 1.625.516 13.982 11.169-14.569 8.019 5.698 12.377 17.09-10.271c6.734-4.047 7.645-13.434 1.814-18.696Zm-47.744 14.204c-5.643-7.192-9.82-18.356-9.82-18.356l3.072-2.286-3.519-1.56s2.123-10.817 2.737-13.048c.069-.248.188-.481.343-.701l-8.038 2.89a7.931 7.931 0 0 0-4.909 5.168l-6.334 20.98-13.408-19.36-11.899 8.029 14.558 21.725c5.165 7.708 16.859 6.534 20.382-2.047l.588-1.434.952 11.027-3.436 23.227s6.662 2.992 15.587 2.365l3.938-12.294-.794-24.325Z"/>
  <path fill="#1C3C4F" d="m234.252 123.479-2.125-5.818-5.26 3.161-5.698-12.378 6.323-3.48-5.736-15.707c-.2-.548-.81-.826-1.356-.619l-24.265 9.229a1.045 1.045 0 0 0-.611 1.333l7.599 20.811-.679.268a1.143 1.143 0 0 0-.675 1.404l.011.033c.198.638.9.971 1.521.722a1.17 1.17 0 0 0-.735 1.086v.013c0 .65.547 1.211 1.194 1.138.101-.011.201-.036.299-.076l-.013.006c-.448.18-.751.621-.722 1.102a1.15 1.15 0 0 0 1.576 1.021c-.594.238-.861.978-.634 1.576.228.597.899.893 1.494.658l.549-.224 1.71 4.685c.2.548.811.826 1.356.618l24.266-9.228c.534-.204.806-.798.611-1.334Z"/>
  <path fill="#FEFEFF" d="m221.559 109.287-3.457 1.903 4.877 10.595 3.394-2.04-4.814-10.458Z"/>
  <path fill="#FFB197" d="m218.773 112.649-4.972 2.272c-1.48-.522-3.854-.169-5.452-.03a10.951 10.951 0 0 1-2.888-.149l-.347-.079a.896.896 0 0 0-1.091.79c-.061.665.195 1.391.953 1.587l3.462.883-5.993 2.356a1.142 1.142 0 0 0-.674 1.404l.01.033c.199.638.901.971 1.522.722a1.171 1.171 0 0 0-.736 1.086v.013c0 .65.548 1.211 1.195 1.138.1-.011.201-.036.299-.076l-.014.006c-.448.18-.751.621-.722 1.102a1.15 1.15 0 0 0 1.577 1.021c-.595.238-.862.978-.634 1.576.227.597.899.893 1.493.657l6.327-2.574c.875-.374 1.556-.679 1.917-.871 1.533-.812 2.441-2.17 2.945-3.215l5.17-2.381-3.347-7.271Z"/>
  <path fill="#48CBFF" d="M204.95 68.482c.401.04.736.124 1.004.227.594.228.96.828.921 1.463l-1.472 24.17 5.164-1.964 2-6.236-3.101-1.422 3.31-1.882-2.44-13.452a1.985 1.985 0 0 0-.8-1.276c-1.71-1.204-4.651-1.29-4.651-1.29l.068 1.524c.002.047-.002.092-.003.138Zm-6.92 37.577-2.588-7.089a8.68 8.68 0 0 1-.406-1.51c-1.962-11.353-1.274-21.918-1.165-26.005a2.264 2.264 0 0 1 .966-1.796l.865-.606-.033-1.56s-4.553 1.086-5.168 3.316c-.614 2.23-2.737 13.047-2.737 13.047l3.519 1.561-3.072 2.286s4.177 11.163 9.819 18.356Z"/>
  <path fill="#FEFEFF" d="M196.507 70.706a1.716 1.716 0 0 1-.8-1.412l-.005-.24-.866.605a2.261 2.261 0 0 0-.966 1.795c-.016.598-.044 1.339-.075 2.196l.019.012c.621.787 1.502 1.726 2.608 2.444l2.035-4.715a4.681 4.681 0 0 1-1.95-.685Zm10.255 1.349.114-1.883a1.466 1.466 0 0 0-.921-1.463 3.91 3.91 0 0 0-1.004-.227v-.005a1.698 1.698 0 0 1-.846 1.42c-.932.537-2.486 1.29-4.138 1.488l1.938 4.407s3.151-1.89 4.857-3.737Z"/>
  <path fill="#FF8387" d="M199.965 71.385a6.226 6.226 0 0 1-1.508.006l-1.357 3.144.823 1.258h2.462l.911-1.38-1.331-3.028Z"/>
  <path fill="#FF9497" d="m197.924 75.793-1.787 22.074 7.131-2.713-2.882-19.361h-2.462Z"/>
  <path fill="#FEFEFF" d="m139.527 78.274-5.172-3.468a1.142 1.142 0 0 1-.285-1.604c.37-.521 1.135-.713 1.664-.353l-1.534-1.055a1.147 1.147 0 0 1-.029-1.876c.384-.292.92-.286 1.319-.015l-1.506-1.036a1.157 1.157 0 0 1-.23-.206c-.421-.495-.259-1.261.282-1.624l.011-.007a1.174 1.174 0 0 1 1.313.004l1.518 1.044a1.142 1.142 0 0 1-.247-1.663l.022-.027a1.147 1.147 0 0 1 1.543-.224l2.378 1.639V6.516H11.25V130.72h129.324V78.94c-.3-.186-.653-.41-1.047-.665Z"/>
  <path fill="#E4E6EC" d="M140.575 71.421a.45.45 0 0 0 .451-.45V3.259a.45.45 0 0 0-.451-.45H11.251a.45.45 0 0 0-.45.45v130.719a.45.45 0 0 0 .45.449h129.324a.45.45 0 0 0 .451-.449V76.64a.45.45 0 0 0-.901 0v56.887H11.702V3.707h128.423v67.265c0 .248.202.45.45.45Z"/>
  <path fill="#7081A9" d="M143.119 130.719H8.707v6.516h134.412v-6.516Z"/>
  <path fill="#4F667D" d="m21.062 137.235-9.505 109.316h3.519l14.748-109.316h-8.762Z"/>
  <path fill="#1C3C4F" d="m21.063 137.235-.079.9h8.72l.121-.9h-8.762Z"/>
  <path fill="#4F667D" d="m130.767 137.235 9.505 109.316h-3.52l-14.748-109.316h8.763Z"/>
  <path fill="#1C3C4F" d="M130.767 137.235h-8.763l.121.9h8.72l-.078-.9Z"/>
  <path fill="#4F667D" d="m71.16 137.235 2.654 109.316h4.204l2.653-109.316h-9.51Z"/>
  <path fill="#1C3C4F" d="M80.671 137.235h-9.51l.023.9h9.463l.024-.9Z"/>
  <path fill="#91DFF2" d="M104.119 14.608H47.711v4.66h56.408v-4.66Z"/>
  <path fill="#007AFF" d="M45.244 52c6.572 0 11.899 5.318 11.899 11.877 0 2.792-.968 5.358-2.585 7.386l9.315 7.385a23.614 23.614 0 0 0 5.17-14.771c0-13.118-10.656-23.752-23.8-23.752-13.143 0-23.798 10.634-23.798 23.752h11.9c0-6.56 5.327-11.876 11.899-11.876Z"/>
  <path fill="#1EACFF" d="m63.873 78.648-9.314-7.386a11.883 11.883 0 0 1-9.315 4.49v11.876c7.547 0 14.27-3.51 18.63-8.98Z"/>
  <path fill="#83DFFF" d="M45.244 75.752c-6.572 0-11.9-5.317-11.9-11.875H21.445c0 13.117 10.655 23.751 23.799 23.751V75.752Zm37.709 9.231h-6.48v4.66h6.48v-4.66Z"/>
  <path fill="#007AFF" d="M82.953 101.076h-6.48v4.66h6.48v-4.66Z"/>
  <path fill="#1EACFF" d="M82.953 93.03h-6.48v4.66h6.48v-4.66Z"/>
  <path fill="#83DFFF" d="M93.335 67.319h-7.2v11.136h7.2V67.319Z"/>
  <path fill="#007AFF" d="M119.862 55.908h-7.2v22.547h7.2V55.908Z"/>
  <path fill="#1EACFF" d="M106.598 50.203h-7.2v28.252h7.2V50.203Z"/>
  <path fill="#E4E6EC" d="M102.919 23.867H48.906a.45.45 0 1 1 0-.9h54.013a.45.45 0 1 1 0 .9Zm29.469 96.095H19.441a.45.45 0 0 1 0-.9h112.947a.45.45 0 0 1 0 .9Zm0-7.618H19.441a.45.45 0 1 1 0-.899h112.947a.45.45 0 1 1 0 .899Zm0 3.809H19.441a.45.45 0 1 1 0-.9h112.947a.45.45 0 0 1 0 .9Zm0 7.618H19.441a.45.45 0 0 1 0-.9h112.947a.45.45 0 0 1 0 .9Z"/>
  <path fill="#4F667D" d="M115.745 104.711h-27.43a.45.45 0 0 0 0 .9h27.43a.45.45 0 1 0 0-.9Zm-7.318-3.509H88.316a.45.45 0 0 0 0 .9h20.111a.45.45 0 1 0 0-.9Zm7.318-4.537h-27.43a.45.45 0 1 0 0 .9h27.43a.45.45 0 1 0 0-.9Zm-7.318-3.509H88.316a.45.45 0 1 0 0 .9h20.111a.45.45 0 1 0 0-.9Zm7.318-4.538h-27.43a.45.45 0 1 0 0 .9h27.43a.45.45 0 1 0 0-.9Zm-7.318-3.509H88.316a.45.45 0 1 0 0 .9h20.111a.45.45 0 1 0 0-.9ZM68.9 91.382H58.846a.45.45 0 1 1 0-.9H68.9a.45.45 0 1 1 0 .9Z"/>
  <path fill="#E4E6EC" d="M66.218 94.891h-7.373a.45.45 0 1 1 0-.9h7.373a.45.45 0 1 1 0 .9Z"/>
  <path fill="#4F667D" d="M37.059 91.382H27.003a.45.45 0 1 1 0-.9H37.06a.45.45 0 1 1 0 .9Z"/>
  <path fill="#E4E6EC" d="M34.374 94.891h-7.373a.45.45 0 1 1 0-.9h7.373a.45.45 0 1 1 0 .9Z"/>
  <path fill="#4F667D" d="M37.059 31.964H27.003a.45.45 0 1 1 0-.9H37.06a.45.45 0 1 1 0 .9Z"/>
  <path fill="#E4E6EC" d="M34.374 35.473h-7.373a.45.45 0 1 1 0-.9h7.373a.45.45 0 1 1 0 .9Zm31.844 62.813h-7.373a.45.45 0 1 1 0-.9h7.373a.45.45 0 1 1 0 .9Zm-31.844 0h-7.373a.45.45 0 1 1 0-.9h7.373a.45.45 0 1 1 0 .9Zm0-59.418h-7.373a.45.45 0 1 1 0-.9h7.373a.45.45 0 1 1 0 .9Z"/>
  <path fill="#4F667D" d="M76.47 39.242h-1.647a.45.45 0 1 1 0-.9h1.648a.45.45 0 1 1 0 .9Zm0 5.705h-1.647a.45.45 0 1 1 0-.9h1.648a.45.45 0 1 1 0 .9Zm0 5.706h-1.647a.45.45 0 1 1 0-.9h1.648a.45.45 0 1 1 0 .9Zm0 5.705h-1.647a.45.45 0 1 1 0-.9h1.648a.45.45 0 1 1 0 .9Zm0 5.705h-1.647a.45.45 0 1 1 0-.9h1.648a.45.45 0 1 1 0 .9Zm0 5.706h-1.647a.45.45 0 1 1 0-.9h1.648a.45.45 0 1 1 0 .9ZM89.735 80.55a.45.45 0 0 1-.45-.45v-1.645a.45.45 0 0 1 .9 0V80.1a.45.45 0 0 1-.45.45Zm13.264 0a.45.45 0 0 1-.45-.45v-1.645a.45.45 0 1 1 .9 0V80.1a.45.45 0 0 1-.45.45Zm13.264 0a.45.45 0 0 1-.451-.45v-1.645a.45.45 0 0 1 .901 0V80.1a.45.45 0 0 1-.45.45ZM76.47 73.474h-1.647a.45.45 0 1 1 0-.9h1.648a.45.45 0 1 1 0 .9Z"/>
  <path fill="#068EFF" d="M115.852 44.828a.446.446 0 0 1-.178-.036l-11.949-5.14a.45.45 0 1 1 .357-.826l11.948 5.14a.449.449 0 0 1-.178.862Z"/>
  <path fill="#48CBFF" d="M90.276 55.716a.45.45 0 0 1-.356-.724l12.039-15.536a.451.451 0 0 1 .713.55L90.633 55.542a.45.45 0 0 1-.357.174Z"/>
  <path fill="#EF7756" d="M202.717 60.929a.45.45 0 1 0-.788-.436c-.017.03-1.692 2.94-6.345 3.068l.019.905c5.164-.136 7.035-3.395 7.114-3.537Z"/>
  <path fill="#4A3CA3" d="M220.649 79.174a.449.449 0 0 1-.407-.64l1.857-3.97a.451.451 0 0 1 .816.38l-1.857 3.97a.452.452 0 0 1-.409.26Zm17.271 19.014-2.949 1.623.769.614 2.615-1.45a.449.449 0 1 0-.435-.787Zm-56.137 7.871-.602-6.927a101.022 101.022 0 0 1-.372-8.647v-3.002a.45.45 0 0 0-.901 0v3.002c0 2.9.127 5.835.376 8.724l.746 8.65c.055-.122.113-.241.165-.366l.588-1.434Zm-8.088-3.854a.45.45 0 0 0 .627.114.45.45 0 0 0 .114-.626l-2.537-3.663-.337 1.116 2.133 3.059Z"/>
  <path fill="#1C3C4F" d="M200.551 148.487a.408.408 0 0 1-.109-.014l-4.52-1.121a.449.449 0 1 1 .217-.873l4.52 1.122a.45.45 0 0 1-.108.886Z"/>
  <path fill="#EF7756" d="M203.302 122.888a.449.449 0 0 1-.168-.867l4.265-1.71a.45.45 0 0 1 .336.834l-4.265 1.71a.453.453 0 0 1-.168.033Zm.746 2.167a.449.449 0 0 1-.168-.867l4.391-1.761a.45.45 0 1 1 .336.834l-4.391 1.761a.453.453 0 0 1-.168.033Zm.854 2.123a.45.45 0 0 1-.168-.867l4.395-1.763a.452.452 0 0 1 .586.25.448.448 0 0 1-.25.584l-4.395 1.763a.457.457 0 0 1-.168.033Zm3.534-9.254 1.741-.702a.45.45 0 1 0-.332-.836l-2.911 1.154 1.502.384Z"/>
  <path fill="#7566DA" d="m198.029 106.054.368 25.009a.45.45 0 0 0 .45.443h.007a.45.45 0 0 0 .444-.456l-.33-22.424-.939-2.572Z"/>
  <path fill="#83DFFF" d="M89.734 57.577a1.61 1.61 0 1 0 0-3.22c-.89 0-1.613.72-1.613 1.61 0 .889.722 1.61 1.613 1.61Z"/>
  <path fill="#1EACFF" d="M103 40.46a1.61 1.61 0 1 0 0-3.22 1.61 1.61 0 1 0 0 3.22Z"/>
  <path fill="#007AFF" d="M116.262 46.166c.89 0 1.613-.72 1.613-1.61 0-.889-.723-1.61-1.613-1.61-.891 0-1.614.721-1.614 1.61 0 .89.723 1.61 1.614 1.61Z"/>
  <path fill="#1C3C4F" d="M269.55 247H.45a.45.45 0 1 1 0-.899h269.1a.45.45 0 1 1 0 .899Z"/>
  <path fill="#382C25" d="M76.472 78.904a.45.45 0 0 1-.45-.45V33.46a.45.45 0 0 1 .9 0v44.995a.45.45 0 0 1-.45.45Z"/>
  <path fill="#382C25" d="M127.823 78.905H76.472a.45.45 0 1 1 0-.9h51.351a.45.45 0 1 1 0 .9Z"/>
  <path fill="#7081A9" d="M143.119 0H8.707v6.516h134.412V0Z"/>
  <path fill="#E4E6EC" d="m157.261 80.387-2.176-3.141-9.841 6.64 2.127 3.174 9.89-6.673Z"/>
  <path fill="#FFB197" d="m153.605 78.246-3.581-4.942c-.391-1.518-2.007-3.288-3.014-4.535a10.89 10.89 0 0 1-1.485-2.476l-.127-.331a.896.896 0 0 0-1.266-.464c-.588.32-1.049.936-.789 1.674l1.195 3.36-6.34-4.368a1.147 1.147 0 0 0-1.543.223l-.022.028a1.142 1.142 0 0 0 .247 1.663l-1.518-1.044a1.174 1.174 0 0 0-1.313-.004l-.011.007c-.541.362-.703 1.128-.282 1.624.066.077.142.147.23.206l1.506 1.036c-.399-.271-.935-.277-1.319.015-.668.51-.6 1.449.029 1.876l1.534 1.055c-.529-.36-1.294-.169-1.664.353-.37.52-.242 1.242.285 1.604l5.172 3.468c.799.517 1.433.91 1.793 1.103 1.218.651 2.502.78 3.555.724l1.968 2.706 6.76-4.56Z"/>
  <path fill="#EF7756" d="M141.705 71.846a.45.45 0 0 1-.255-.08l-4.823-3.318a.449.449 0 1 1 .511-.74l4.823 3.318a.45.45 0 0 1-.256.82Zm-1.278 1.901a.448.448 0 0 1-.255-.08l-4.936-3.394a.448.448 0 0 1-.115-.626.45.45 0 0 1 .626-.115l4.936 3.395a.449.449 0 0 1-.256.82Zm-1.288 1.894a.448.448 0 0 1-.255-.08l-3.406-2.342a.449.449 0 1 1 .511-.74l3.406 2.343a.449.449 0 0 1-.256.82Zm7.646-.142a.454.454 0 0 1-.139-.022c-1.563-.506-2.496-1.775-2.625-3.574a.45.45 0 0 1 .898-.065c.105 1.45.779 2.387 2.005 2.783a.45.45 0 0 1-.139.878Zm-1.32 5.414c.645-.147 1.494-.426 2.286-.958a.45.45 0 1 0-.504-.746c-.848.57-1.803.797-2.372.892l.59.812Z"/>
  <path fill="#1C3C4F" d="M196.875 54.757c.57 0 1.032-.53 1.032-1.184 0-.654-.462-1.184-1.032-1.184-.569 0-1.031.53-1.031 1.184 0 .654.462 1.184 1.031 1.184Zm-5.533.172c.57 0 1.032-.53 1.032-1.184 0-.654-.462-1.184-1.032-1.184-.57 0-1.031.53-1.031 1.184 0 .654.461 1.184 1.031 1.184Z"/>
  <path fill="#EF7756" d="M194.131 59.843c-.593 0-.97-.1-1.005-.11a.465.465 0 1 1 .248-.897c.067.018 1.651.422 3.49-.778a.465.465 0 1 1 .51.779c-1.265.825-2.448 1.006-3.243 1.006Zm-1.351-2.312a.465.465 0 0 1-.319-.805c.909-.85.92-2.373.92-2.389a.465.465 0 1 1 .931 0c0 .08-.014 1.945-1.213 3.068a.466.466 0 0 1-.319.126Z"/>
</svg>
