<svg xmlns="http://www.w3.org/2000/svg" width="259" height="247" fill="none" viewBox="0 0 259 247">
  <path fill="#007AFF" d="m64.418 154.257-.356 3.387h10.066l-4.23-3.554-5.48.167Z"/>
  <path fill="#FFB197" d="M76.63 94.847a3.436 3.436 0 0 0-3.271-2.292c-3.61.022-6.711.676-8.678 1.22-1.016.282-1.439 1.504-.798 2.34.711.927 1.395 2.098 1.283 3.074-.223 1.951-.78 5.297-.78 5.297s-1.283-3.401-3.514-2.286c-2.231 1.115.167 6.969 3.179 4.627l-.747 4.632a2.135 2.135 0 0 0 .508 1.761c1.1 1.239 3.572 3.224 7.282 1.763.49-.193.836-.639.893-1.162l.486-4.497c3.43-.644 5.144-4.876 5.116-8.546-.02-2.588-.483-4.57-.96-5.931Z"/>
  <path fill="#007AFF" d="M63.418 110.953s-2.987 1.2-2.57 4.545c.42 3.345 2.009 32.282 2.009 32.282l-1.255 8.955h-25.55c-6.6 0-10.71-7.159-7.382-12.856l13.834-23.673a10.42 10.42 0 0 1 6.152-4.767l9.223-2.618s1.775-2.847 5.677-2.72l-.138.852Z"/>
  <path fill="#FF9497" d="m45.748 144.768.416-6.022-3.37 5.356 2.954.666Z"/>
  <path fill="#007AFF" d="M93.203 141.655a6.726 6.726 0 0 1-1.531-2.764l-4.262-15.475a8.2 8.2 0 0 0-4.146-4.61l-6.55-3.169c-1.282-2.342-4.46-3.99-4.46-3.99l-.138 1.269s1.573 1.161 1.74 2.582c.15 1.28-4.77 28.519-5.75 33.925l5.08.1c1.049.02 2.071.31 2.974.832h2.33c.37 0 .731.085 1.057.237l1.661-7.578s3.934 7.232 8.016 10.685h3.455l2.314-10.094-1.79-1.95Zm70.413-118.871a13.335 13.335 0 0 1-3.514-12.665H96.877c-3.814 0-6.936 3.12-6.936 6.934v43.719c0 3.814 3.122 6.934 6.936 6.934h60.012l8.994 8.92v-8.92h.237c3.815 0 6.936-3.12 6.936-6.934v-34.08a13.31 13.31 0 0 1-9.44-3.908Z"/>
  <path fill="#F6F6F7" d="M201.139 78.92a11.94 11.94 0 0 0 1.681 4.464 1.641 1.641 0 0 1-.288 2.095 20.117 20.117 0 0 1-3.387 2.47l10.252 1.737a8.685 8.685 0 0 1 6.443 4.94l8.031 22.585 4.079 6.568h26.433v-44.86h-53.244Z"/>
  <path fill="#fff" d="M244.428 92.108h-5.776v5.774h5.776v-5.774Zm-10.192 0h-5.775v5.774h5.775v-5.774Zm-13.845 15.321h3.651v-5.774h-5.704l2.053 5.774Zm24.037 3.774h-5.776v5.774h5.776v-5.774Zm-10.192-9.548h-5.775v5.774h5.775v-5.774Z"/>
  <path fill="#FFB197" d="m149.987 97.617-1.869-2.508c.201-1.554-.641-3.797-1.111-5.327a10.954 10.954 0 0 1-.459-2.85l.005-.354a.894.894 0 0 0-1.001-.9c-.663.08-1.319.482-1.352 1.263l-.14 3.564-4.256-6.404a1.144 1.144 0 0 0-1.514-.364l-.03.017a1.143 1.143 0 0 0-.388 1.636l-1.02-1.531a1.17 1.17 0 0 0-1.216-.49l-.013.002c-.636.137-1.07.788-.863 1.404.032.096.077.189.136.277l1.012 1.519c-.269-.4-.764-.603-1.228-.474a1.149 1.149 0 0 0-.67 1.753l1.031 1.547c-.357-.53-1.137-.636-1.674-.288a1.144 1.144 0 0 0-.331 1.595l3.509 5.136c.549.776.99 1.376 1.253 1.688 1.114 1.326 2.633 1.927 3.76 2.2l1.89 2.52 6.539-4.63Zm92.294 43.333-.334-.119a10.924 10.924 0 0 1-2.512-1.423c-1.271-.974-3.08-2.545-4.607-2.898l-1.202-1.859c-1.786 1.876-5.167 3.342-6.94 4.022l1.525 2.373c-.137 1.151-.103 2.784.752 4.29.201.355.61.978 1.146 1.763l3.591 5.078a1.143 1.143 0 0 0 1.611.246c.513-.382.686-1.149.313-1.669l1.092 1.506a1.149 1.149 0 0 0 1.876-.016c.283-.39.265-.925-.016-1.317l1.072 1.478c.062.086.133.161.212.224.505.409 1.267.229 1.616-.319l.007-.012a1.17 1.17 0 0 0-.035-1.31l-1.08-1.489a1.144 1.144 0 0 0 1.669.207l.027-.023a1.143 1.143 0 0 0 .187-1.545l-4.521-6.221 3.39 1.111c.744.242 1.349-.233 1.655-.826a.894.894 0 0 0-.494-1.252Z"/>
  <path fill="#F6F6F7" d="m174.639 91.326 9.014-2.648a24.447 24.447 0 0 1-3.407-1.687 2.53 2.53 0 0 1-.933-3.385c.822-1.514 1.613-3.157 2.05-4.687h-7.691v12.803c.306-.162.628-.297.967-.396Z"/>
  <path fill="#FFC71C" d="m183.651 88.677-9.013 2.648a5.155 5.155 0 0 0-3.43 3.295l-6.88 20.377-13.552-17.938-8.561 6.062 15.58 21.982c3.379 4.544 10.343 4.009 12.988-.998l4.413-8.353.02.057a13.948 13.948 0 0 1 .62 7.123c-1.645 9.319-5.336 27.078-5.336 27.078 3.681 2.007 8.55 2.872 8.55 2.872l4.016-26.511 2.182-38.904-1.597 1.21Zm40.219 28.534-8.031-22.584a8.685 8.685 0 0 0-6.443-4.941l-10.253-1.738-4.016-1.517 1.701 40.239 1.715 25.292s7.696.418 14.305-2.509l-5.856-29.278s1.589-9.946 1.506-15.633l4.888 14.499a20.997 20.997 0 0 0 1.832 3.955l10.317 16.093s6.692-2.175 8.7-5.186l-10.365-16.692Z"/>
  <path fill="#4F667D" d="m198.543 151.962-1.367-20.168c-7.438.964-14.889-.27-14.889-.27l-3.236 21.358s-1.731-.308-3.909-.981l-.099 4.834h34.442l-.465-5.949c-5.43 1.45-10.477 1.176-10.477 1.176Z"/>
  <path fill="#FFB197" d="M223.76 241.783c-4.577-1.136-8.106-4.754-9.94-6.846-.877-1-1.275-2.228-1.417-3.607l-.825-12.766c-3.215 1.215-7.277.732-9.285.37l1.423 10.187a22.458 22.458 0 0 1-.006 4.673c-.238 2.243-.557 5.505-.557 6.818 0 2.091.446 5.938.446 5.938h4.434v-4.098s3.932 4.098 6.274 4.098h12.967s.53-3.763-3.514-4.767Zm-41.443-12.661.967-9.336c-3.067.997-7.182.222-9.264-.298l-.391 11.842a5.749 5.749 0 0 1-1.416 3.607c-1.834 2.092-5.363 5.71-9.94 6.847-4.044 1.003-3.514 4.767-3.514 4.767h12.967c2.342 0 6.274-4.098 6.274-4.098v4.098h4.433s.447-3.847.447-5.938c0-1.314-.32-4.576-.557-6.819a22.448 22.448 0 0 1-.006-4.672Z"/>
  <path fill="#F6F6F7" d="M13.706 162.235 7.361 246.55h3.95l9.846-84.315h-7.45Zm231.588 0 6.345 84.315h-3.95l-9.845-84.315h7.45Zm-113.045 0h-5.501v84.315h5.501v-84.315Z"/>
  <path fill="#EF7756" d="M66.733 107.231a.45.45 0 1 0-.527.728c2.102 1.52 4.068 2.286 5.861 2.286.115 0 .228-.009.341-.016l.098-.905c-1.71.143-3.648-.557-5.773-2.093Z"/>
  <path fill="#1C3C4F" d="M60.903 102.2c2.23-1.115 3.513 2.286 3.513 2.286s.558-3.346.781-5.297c.112-.976-.572-2.147-1.283-3.074-.641-.836-.218-2.058.798-2.34 1.966-.544 5.066-1.198 8.673-1.22a3.441 3.441 0 0 1 3.277 2.296c.326.932.641 2.161.817 3.669 1.514-1.986 4.892-7.311-1.198-8.698 0 0-1.506-8.615-8.407-3.513 0 0-4.185 3.48-7.488 5.02a5.057 5.057 0 0 0-2.92 4.607c.015 2.588.512 5.801 2.615 7.443.102-.518.363-.95.822-1.179Z"/>
  <path fill="#F6F6F7" d="M61.602 156.735H64.8l1.235-7.742-3.295-.381-1.138 8.123Z"/>
  <path fill="#4A3CA3" d="M42.498 144.633a.45.45 0 0 1-.374-.698c.277-.416 6.785-10.198 7.864-11.276.748-.748.763-2.898.706-3.663a.45.45 0 0 1 .897-.067c.024.323.205 3.194-.967 4.366-.843.843-5.881 8.326-7.751 11.138a.45.45 0 0 1-.375.2Z"/>
  <path fill="#48CBFF" d="m63.418 110.953.137-.852c-3.902-.127-5.676 2.72-5.676 2.72s-1.297 2.091-1.715 6.858a332.2 332.2 0 0 0-.586 7.443l3.095 1.84-2.133 2.551 3.458 15.787 2.858.48s-1.59-28.937-2.008-32.282c-.418-3.345 2.57-4.545 2.57-4.545Zm8.835.694-.137 1.269s1.573 1.161 1.74 2.582c.15 1.28-4.77 28.519-5.75 33.925l2.416.047 5.638-16.797-2.31-2.484 3.03-1.227s.085-3.29.157-6.635c.07-3.345-.323-6.69-.323-6.69-1.282-2.342-4.46-3.99-4.46-3.99Z"/>
  <path fill="#E4E6EC" d="M73.856 115.498c-.168-1.421-1.74-2.582-1.74-2.582l-.098.905a1.417 1.417 0 0 1-.893 1.162c-3.71 1.461-6.181-.524-7.282-1.763a2.136 2.136 0 0 1-.508-1.761l.081-.506s-.572.23-1.18.768a4.574 4.574 0 0 0-.76.869c-.078.117-.15.241-.219.372-.339.655-.54 1.491-.41 2.536.045.366.105 1.038.175 1.945l.063.833.033.456.07.987a604.874 604.874 0 0 1 .228 3.461c.068 1.049.137 2.161.208 3.309.127 2.067.257 4.252.384 6.404l.042.716c.432 7.381.805 14.17.805 14.17l-.117.832 3.296.381-.062.389 2.133.042c.98-5.406 5.901-32.645 5.75-33.925Z"/>
  <path fill="#F6F6F7" d="M63.843 113.22a2.136 2.136 0 0 1-.508-1.761l.081-.506s-.572.23-1.18.768a4.397 4.397 0 0 0-.76.869c-.078.117-.15.241-.219.372-.339.655-.54 1.491-.41 2.536l.021.186c1.682 1.904 4.113 3.779 4.113 3.779l2.618-4.049c-1.788-.307-3.052-1.402-3.756-2.194Zm10.014 2.278c-.168-1.421-1.74-2.582-1.74-2.582l-.098.905a1.417 1.417 0 0 1-.893 1.162 7.73 7.73 0 0 1-1.257.378l1.38 3.705s1.166-.321 2.303-.994c.214-1.428.33-2.361.305-2.574Z"/>
  <path fill="#FF8387" d="M69.87 115.361v-.001a6.038 6.038 0 0 1-2.27.054l-1.537 2.378.808 1.768 2.72.07 1.14-1.955-.862-2.314Z"/>
  <path fill="#FF9497" d="m69.59 119.63-2.718-.069-4.458 20.333c.259 4.543.442 7.886.442 7.886l-.116.832 3.295.381-.062.388 2.133.042c.362-1.992 1.258-6.949 2.238-12.478l-.753-17.315Z"/>
  <path fill="#4F667D" d="m97.58 167.739-14.606-2.773c-6.499-.133-10.472 2.811-11.82 4.014 4.815 1.934 7.764 6.831 7.161 11.993l-.276 2.369c6.164 1.103 14.43.985 14.43.985l-6.86 45.831H99.53l10.306-43.525c2.045-8.639-3.533-17.238-12.257-18.894Z"/>
  <path fill="#007AFF" d="M71.049 168.936c.036.014.07.03.107.044 1.348-1.203 5.32-4.147 11.82-4.013l-1.493-2.732H66.035l4.014 6.324c.34.124.674.25 1 .377Zm-5.574-1.816-.002-.001c.223-1.897.561-4.884.561-4.884h-24.3c-1.125 4.566-.629 8.823-.629 8.823l2.426-1.45c6.873-4.685 15.111-4.266 21.944-2.488Z"/>
  <path fill="#4F667D" d="m70.05 168.558-4.014-6.323s-.338 2.987-.561 4.884a49.12 49.12 0 0 1 4.576 1.439Z"/>
  <path fill="#FF9497" d="m78.039 183.342-.603 5.167h8.307c2.388 0 4.437-1.813 4.603-4.188-2.859-.04-8.077-.222-12.307-.979Zm-19.617.065s-5.27-.418-10.457-1.84c-5.187-1.421-4.433-11.959-4.433-11.959l-2.426 1.45s-.497-4.257.629-8.823h-9.957c-.4 3.148-1.468 13.802 1.353 20.886 1.302 3.269 4.498 5.388 8.017 5.388h17.274v-5.102Z"/>
  <path fill="#E85D62" d="M42.278 180.986a.448.448 0 0 1-.096-.011c-3.028-.654-5.149-3.033-6.134-6.881-.727-2.841-.584-5.452-.577-5.562a.449.449 0 0 1 .897.052c-.006.101-.507 10.107 6.004 11.513a.449.449 0 0 1-.094.889Z"/>
  <path fill="#FF8387" d="M58.423 188.509H41.15a8.7 8.7 0 0 1-4.392-1.191c.062.586.192 1.4.469 2.229.642 1.924 2.472 3.2 4.5 3.2h16.697v-4.238Zm27.321 0h-8.308l-.495 4.237h4.914c1.816 0 3.492-1.024 4.27-2.665.24-.507.459-1.073.622-1.685a4.63 4.63 0 0 1-1.003.113Z"/>
  <path fill="#E4E6EC" d="M107.863 241.997a7.776 7.776 0 0 0-4.706-2.87c-2.479-.465-5.142-1.145-6.044-2.027-1.47-1.435-.274-5.4.269-6.942h-10.49l-2.745 16.393h25.075c.096-1.631-.355-3.266-1.359-4.554Zm-32.375-2.87c-2.48-.465-3.43-1.145-4.332-2.027-1.47-1.435-.956-5.4-.413-6.942h-10.49l-2.063 16.393h22.178l-.35-1.514c-.698-3.016-1.487-5.34-4.53-5.91Z"/>
  <path fill="#F4A37A" d="M41.725 192.746c-.453 0-.894-.066-1.316-.186l-7.237 53.99h4.645l9.758-53.804h-5.85Zm45.187 28.708-3.868-28.86a4.802 4.802 0 0 1-1.189.152h-4.913l-.419 3.584 8.336 45.962 2.032-12.134H85.61l1.303-8.704Z"/>
  <path fill="#EF7756" d="M144.946 96.597a.446.446 0 0 1-.273-.093c-1.143-.877-1.79-1.905-1.923-3.054-.206-1.779.916-3.172.963-3.23a.45.45 0 0 1 .697.569c-.018.022-.931 1.176-.766 2.566.106.895.636 1.715 1.576 2.436a.45.45 0 0 1-.274.806Zm-3.831-5.89a.45.45 0 0 1-.375-.2l-3.241-4.868a.45.45 0 1 1 .749-.498l3.241 4.867a.45.45 0 0 1-.374.699ZM139.225 92a.448.448 0 0 1-.374-.2l-3.317-4.98a.45.45 0 0 1 .749-.498l3.316 4.98a.449.449 0 0 1-.374.698Zm-1.897 1.283a.45.45 0 0 1-.375-.2l-2.288-3.437a.45.45 0 0 1 .749-.498l2.287 3.437a.449.449 0 0 1-.373.698Zm99.099 49.273c-.573 0-1.252-.1-1.914-.437-1.03-.525-1.768-1.489-2.192-2.867a.45.45 0 0 1 .859-.264c.35 1.136.936 1.92 1.742 2.33 1.26.642 2.65.178 2.664.174a.448.448 0 1 1 .292.85 4.835 4.835 0 0 1-1.451.214Zm3.942 7.392a.447.447 0 0 1-.364-.186l-3.433-4.733a.45.45 0 1 1 .728-.528l3.433 4.734a.448.448 0 0 1-.364.713Zm-1.789 1.429a.449.449 0 0 1-.365-.186l-3.512-4.843a.45.45 0 1 1 .728-.528l3.512 4.844a.448.448 0 0 1-.363.713Zm-2.955-.173a.45.45 0 0 1-.364-.186l-2.423-3.342a.45.45 0 0 1 .727-.528l2.424 3.342a.45.45 0 0 1-.364.714Z"/>
  <path fill="#4A3CA3" d="M85 129.931a.45.45 0 0 0-.879-.192l-2.912 13.275s.243.446.67 1.17L85 129.931Zm-35.74-6.875a.449.449 0 0 1-.408-.262c-.684-1.487-1.688-2.887-1.699-2.901a.449.449 0 1 1 .73-.526c.042.06 1.065 1.483 1.785 3.051a.45.45 0 0 1-.407.638Z"/>
  <path fill="#C46C3F" d="M58.19 246.55h22.178l-.35-1.513c-.698-3.016-1.487-5.34-4.53-5.91-2.48-.465-3.43-1.146-4.332-2.027-.72-.703-.962-2.012-.96-3.345H59.801L58.19 246.55Zm49.674-4.553a7.779 7.779 0 0 0-4.707-2.87c-2.479-.465-5.141-1.145-6.044-2.027-.72-.703-.798-2.012-.63-3.345H86.29l-2.144 12.795h25.076c.096-1.63-.355-3.265-1.358-4.553Z"/>
  <path fill="#1C3C4F" d="M202.819 83.384c-.786-1.249-1.873-3.51-1.813-6.386.09-4.259.478-19.683-16.845-16.517-1.654.303-2.705 1.935-2.33 3.574.091.394.194.786.312 1.146 0 0-4.072 2.488-2.87 5.28.906 2.106 1.831 3.107 2.233 4.607.153-4.442 1.33-6.889 1.759-7.64 0 0 4.317 6.569 11.459 5.791 0 0-.565 1.697-.565 3.252 0 0 1.803-1.59 2.899-.565 1.018.952.541 4.957-2.369 4.611l.438 5.894 4.016 1.517a20.066 20.066 0 0 0 3.387-2.469 1.64 1.64 0 0 0 .289-2.095Zm-21.202-5.555c-.301 1.813-1.283 3.896-2.305 5.777a2.53 2.53 0 0 0 .933 3.385 24.419 24.419 0 0 0 3.406 1.686l1.597-1.21.54-3.758c-2.252-.685-3.746-2.934-4.171-5.88Z"/>
  <path fill="#382C25" d="M194.689 80.799c-.01 0-.02 0-.031-.002a4.097 4.097 0 0 1-.756-.168.261.261 0 0 1 .159-.498 3.5 3.5 0 0 0 .659.147.26.26 0 0 1-.031.52Z"/>
  <path fill="#FFB197" d="m195.128 86.43-.437-5.892c2.909.345 3.387-3.66 2.368-4.612-1.096-1.025-2.899.565-2.899.565 0-1.555.566-3.252.566-3.252-7.142.778-11.459-5.791-11.459-5.791-.46.804-1.777 3.55-1.777 8.607 0 3.8 1.613 6.837 4.299 7.654l-.539 3.758-2.182 38.904-.78 5.153s7.451 1.234 14.889.27l-.348-5.124-1.701-40.24Z"/>
  <path fill="#EF7756" d="M193.284 81.967a.448.448 0 0 0-.621-.134c-2.477 1.6-4.835 2.237-6.875 1.876l-.128.892c.411.07.831.11 1.261.11 1.936 0 4.052-.716 6.23-2.123a.45.45 0 0 0 .133-.621Z"/>
  <path fill="#F99132" d="M175.196 115.752c-1.077-3.628-1.875-8.991-.477-15.638a.45.45 0 1 0-.88-.185c-1.544 7.341-.457 13.227.767 16.941l.59-1.118Zm-9.718 2.352a.45.45 0 1 0 .886-.155 10.395 10.395 0 0 0-1.661-4.063l-.375 1.11c.561.965.958 2.01 1.15 3.108Zm44.532-20.876a.45.45 0 0 1-.414-.625c.625-1.477 1.569-2.816 1.609-2.872a.449.449 0 1 1 .733.52c-.009.012-.928 1.317-1.514 2.703a.45.45 0 0 1-.414.274Z"/>
  <path fill="#F6F6F7" d="m196.879 127.404-.05-.734-1.217-28.788c-5.137 2.847-9.454.918-10.949.051l-1.595 28.438-.125.824-.656 4.329s7.451 1.234 14.889.27l-.297-4.39Z"/>
  <path fill="#1C3C4F" d="M191.647 157.108a.45.45 0 0 1-.443-.379l-1.51-9.575a1.683 1.683 0 0 0-1.196-1.351l-1.685-.48a.449.449 0 1 1 .246-.864l1.685.48a2.586 2.586 0 0 1 1.839 2.076l1.509 9.574a.449.449 0 0 1-.445.519ZM178 242.452v4.098h4.433s.447-3.847.447-5.938c0-1.259-.294-4.308-.527-6.535l-.918.017a5.911 5.911 0 0 0-3.985 1.645c-1.656 1.59-4.286 3.96-6.406 5.159-2.626 1.484-4.458.088-5.137-.599-1.118.633-2.332 1.161-3.634 1.484-4.044 1.004-3.514 4.767-3.514 4.767h12.967c2.342 0 6.274-4.098 6.274-4.098Zm30.032 0v4.098h-4.433s-.447-3.847-.447-5.938c0-1.259.294-4.308.527-6.535l.918.017a5.911 5.911 0 0 1 3.985 1.645c1.656 1.59 4.286 3.96 6.406 5.159 2.626 1.484 4.458.088 5.137-.599 1.118.633 2.332 1.161 3.634 1.484 4.044 1.004 3.514 4.767 3.514 4.767h-12.966c-2.343 0-6.275-4.098-6.275-4.098Z"/>
  <path fill="#4F667D" d="m174.835 162.235-2.142 56.884s7.948 2.593 12.047 0l6.002-56.884h-15.907Zm17.349 0 8.868 56.438s7.529 1.951 11.963-.809l-3.212-55.629h-17.619Z"/>
  <path fill="#83DFFF" d="M123.913 75.769H89.317a4.288 4.288 0 0 0-4.276 4.274v25.868a4.288 4.288 0 0 0 4.276 4.275h.909v6.447l6.502-6.447h27.185a4.288 4.288 0 0 0 4.275-4.275V80.043a4.288 4.288 0 0 0-4.275-4.274Z"/>
  <path fill="#007AFF" d="M134.941 151.055h29.169v5.68h-29.169a2.84 2.84 0 1 1 0-5.68Z"/>
  <path fill="#EC221F" d="M138.695 145.374h29.169v5.681h-29.169a2.841 2.841 0 0 1 0-5.681Z"/>
  <path fill="#FFE91D" d="M138.695 139.693h29.169v5.681h-29.169a2.84 2.84 0 1 1 0-5.681Z"/>
  <path fill="#F6F6F7" d="M136.186 31.938h-3.868v24.641h3.868V31.938Zm8.692 4.657h-3.868v19.984h3.868V36.595Zm8.693 5.294h-3.868v14.69h3.868V41.89Zm8.693 4.373h-3.868V56.58h3.868V46.262Z"/>
  <path fill="#91DFF2" d="M165.188 40.231a.455.455 0 0 1-.057-.004c-17.382-2.173-31.119-18.053-31.256-18.213a.45.45 0 1 1 .684-.584c.135.158 13.652 15.776 30.684 17.905a.45.45 0 0 1-.055.896Z"/>
  <path fill="#91DFF2" d="M133.395 25.041h-.011a.45.45 0 0 1-.439-.46l.092-3.624a.445.445 0 0 1 .461-.438l3.624.09a.45.45 0 0 1-.023.9l-3.175-.08-.08 3.174a.45.45 0 0 1-.449.438Z"/>
  <path fill="#E4E6EC" d="M66.236 77.417a.449.449 0 0 1-.356-.174l-2.028-2.617a.45.45 0 1 1 .711-.55l1.753 2.26 2.262-1.751a.45.45 0 1 1 .55.71l-2.617 2.028a.45.45 0 0 1-.275.094Z"/>
  <path fill="#14AE5C" d="M38.952 101.47c5.213 0 9.439-4.225 9.439-9.436 0-5.212-4.226-9.437-9.439-9.437a9.437 9.437 0 1 0 0 18.873Z"/>
  <path fill="#fff" d="M38.376 95.865c-.397 0-.779-.157-1.06-.439l-2.688-2.687a1.498 1.498 0 1 1 2.12-2.118l1.628 1.627 2.822-2.822a1.499 1.499 0 0 1 2.12 2.119l-3.882 3.881a1.5 1.5 0 0 1-1.06.44Z"/>
  <path fill="#E4E6EC" d="M220.548 60.056c9.166 0 16.596-7.428 16.596-16.59 0-9.164-7.43-16.592-16.596-16.592-9.165 0-16.595 7.428-16.595 16.591s7.43 16.591 16.595 16.591Z"/>
  <path fill="#fff" d="M220.548 56.963c7.457 0 13.502-6.043 13.502-13.498 0-7.455-6.045-13.498-13.502-13.498-7.456 0-13.501 6.044-13.501 13.498 0 7.455 6.045 13.498 13.501 13.498Z"/>
  <path fill="#F6F6F7" d="M215.218 122.996a20.95 20.95 0 0 1-1.831-3.954l-4.889-14.5c.084 5.688-1.506 15.633-1.506 15.633l.721 3.604h8.007l-.502-.783Z"/>
  <path fill="#E4E6EC" d="M245.934 85.086h-38.342a.45.45 0 0 1 0-.899h38.342a.45.45 0 0 1 0 .9Z"/>
  <path fill="#48CBFF" d="M124.909 22.437h-21.194v3.755h21.194v-3.755Z"/>
  <path fill="#F6F6F7" d="M124.665 31.56h-19.918a.45.45 0 1 1 0-.9h19.919a.45.45 0 1 1-.001.9Zm-2.998 3.733h-16.92a.45.45 0 1 1 0-.899h16.92a.45.45 0 0 1 0 .9Zm2.998 3.733h-19.918a.45.45 0 1 1 0-.899h19.919a.45.45 0 1 1-.001.9Zm-2.998 3.734h-16.92a.45.45 0 1 1 0-.9h16.92a.45.45 0 0 1 0 .9Zm2.998 3.733h-19.918a.45.45 0 1 1 0-.899h19.919a.45.45 0 1 1-.001.9Zm-2.998 3.734h-16.92a.45.45 0 1 1 0-.9h16.92a.45.45 0 0 1 0 .9Zm2.998 3.733h-19.918a.45.45 0 1 1 0-.9h19.919a.45.45 0 1 1-.001.9Zm-2.998 3.733h-16.92a.45.45 0 1 1 0-.9h16.92a.45.45 0 0 1 0 .9Zm-21.27-24.579a.449.449 0 0 1-.318-.132l-1.207-1.207a.45.45 0 1 1 .636-.636l.889.89 1.236-1.236a.45.45 0 0 1 .636.635l-1.554 1.554a.449.449 0 0 1-.318.132Zm0 7.466a.449.449 0 0 1-.318-.131l-1.207-1.208a.45.45 0 1 1 .636-.635l.889.89 1.236-1.237a.45.45 0 0 1 .636.636l-1.554 1.554a.449.449 0 0 1-.318.131Zm0 7.467a.449.449 0 0 1-.318-.132l-1.207-1.207a.45.45 0 1 1 .636-.636l.889.89 1.236-1.236a.45.45 0 0 1 .636.635l-1.554 1.554a.449.449 0 0 1-.318.132Zm0 7.466a.449.449 0 0 1-.318-.131l-1.207-1.207a.45.45 0 1 1 .636-.636l.889.89 1.236-1.237a.45.45 0 0 1 .636.636l-1.554 1.554a.449.449 0 0 1-.318.131Z"/>
  <path fill="#E4E6EC" d="M66.344 76.523a.45.45 0 0 1-.475-.508c.113-.84.26-1.687.438-2.516a.449.449 0 1 1 .879.188c-.173.806-.316 1.63-.425 2.447a.45.45 0 0 1-.417.39ZM67.4 71.6a.45.45 0 0 1-.46-.577c.243-.813.52-1.626.824-2.417a.449.449 0 1 1 .84.323c-.296.77-.566 1.56-.802 2.351a.45.45 0 0 1-.402.32Zm1.808-4.698a.45.45 0 0 1-.434-.642c.366-.766.766-1.526 1.189-2.26a.45.45 0 0 1 .779.449c-.412.713-.8 1.453-1.156 2.198a.45.45 0 0 1-.378.255Zm2.514-4.36a.45.45 0 0 1-.4-.703c.48-.7.993-1.389 1.525-2.049a.45.45 0 0 1 .7.564 32.092 32.092 0 0 0-1.482 1.993.45.45 0 0 1-.343.194Zm3.16-3.919a.45.45 0 0 1-.356-.757 32.603 32.603 0 0 1 1.825-1.786.45.45 0 0 1 .603.667 31.742 31.742 0 0 0-1.774 1.737.449.449 0 0 1-.298.14Zm3.731-3.376a.448.448 0 0 1-.303-.805 32.46 32.46 0 0 1 2.081-1.478.45.45 0 1 1 .492.753c-.69.45-1.37.933-2.024 1.437a.449.449 0 0 1-.246.093Zm4.215-2.75a.45.45 0 0 1-.245-.844 32.905 32.905 0 0 1 2.288-1.134.45.45 0 0 1 .368.82c-.754.339-1.503.71-2.225 1.104a.447.447 0 0 1-.186.054Zm159.131 42.144h-.781a.45.45 0 0 1 0-.899h.781a.45.45 0 0 1 0 .9Zm0 19.095h-.781a.449.449 0 1 1 0-.899h.781a.45.45 0 0 1 0 .899Zm-10.221-19.095h-.781a.45.45 0 0 1 0-.899h.781a.45.45 0 0 1 0 .9Zm0 9.548h-.781a.45.45 0 0 1 0-.899h.781a.449.449 0 1 1 0 .899Zm-10.192 0h-.481a.45.45 0 1 1 0-.899h.481a.449.449 0 1 1 0 .899Z"/>
  <path fill="#D3D5DD" d="M220.999 30.882v-.908c-.3-.01-.6-.008-.899.002v.906a.45.45 0 1 0 .899 0Zm0 26.073v-.906a.45.45 0 1 0-.899 0v.907c.3.01.6.009.899-.001Zm-6.356-24.612-.453-.786c-.265.142-.524.293-.778.451l.453.784a.45.45 0 1 0 .778-.45Zm13.039 22.58-.452-.785a.45.45 0 0 0-.779.45l.454.786c.264-.142.523-.293.777-.451ZM209.87 36.784l-.786-.453c-.158.255-.307.515-.447.78l.784.452a.45.45 0 1 0 .449-.779Zm22.587 13.036-.785-.452a.45.45 0 1 0-.449.778l.786.454c.158-.255.307-.515.448-.78Zm-24.496-6.804h-.908c-.009.3-.008.6.002.899h.906a.45.45 0 0 0 0-.9Zm26.078 0h-.906a.45.45 0 0 0 0 .899h.908c.009-.3.008-.6-.002-.9Zm-24.616 6.352-.786.453c.141.265.293.524.451.778l.784-.453a.45.45 0 0 0-.449-.778Zm22.584-13.037-.784.453a.45.45 0 0 0 .449.779l.786-.454a12.748 12.748 0 0 0-.451-.778Zm-18.141 17.807-.454.786c.255.159.516.307.78.448l.453-.784a.45.45 0 0 0-.779-.45Zm13.038-22.58-.453.785a.45.45 0 1 0 .779.45l.453-.787a13.517 13.517 0 0 0-.779-.448Z"/>
  <path fill="#1C3C4F" d="M219.912 42.459a.45.45 0 0 1-.412-.27l-2.48-5.692a.45.45 0 0 1 .824-.359l2.48 5.692a.45.45 0 0 1-.412.629Z"/>
  <path fill="#F6F6F7" d="M103.701 88.306h-10.69a.45.45 0 1 1 0-.9h10.69a.45.45 0 1 1 0 .9Zm0 3.036h-10.69a.45.45 0 1 1 0-.9h10.69a.45.45 0 1 1 0 .9Zm0 10.387h-10.69a.45.45 0 1 1 0-.899h10.69a.45.45 0 1 1 0 .899Zm0 3.036h-10.69a.45.45 0 0 1 0-.899h10.69a.45.45 0 1 1 0 .899Z"/>
  <path fill="#C3F4FC" d="M100.63 81.708h-6.891c-.823 0-1.495.672-1.495 1.494s.672 1.494 1.495 1.494h6.891c.822 0 1.494-.672 1.494-1.494s-.672-1.494-1.494-1.494Zm0 13.485h-6.891c-.823 0-1.495.672-1.495 1.493 0 .822.672 1.494 1.495 1.494h6.891c.822 0 1.494-.672 1.494-1.494 0-.821-.672-1.493-1.494-1.493Zm10.034-10.497h6.892c.822 0 1.494-.672 1.494-1.494s-.672-1.494-1.494-1.494h-6.892c-.822 0-1.494.672-1.494 1.494s.672 1.494 1.494 1.494Zm6.892 10.497h-6.892c-.822 0-1.494.672-1.494 1.493 0 .822.672 1.494 1.494 1.494h6.892c.822 0 1.494-.672 1.494-1.494 0-.821-.672-1.493-1.494-1.493Z"/>
  <path fill="#F6F6F7" d="M120.627 88.306h-10.691a.45.45 0 0 1 0-.9h10.691a.45.45 0 1 1 0 .9Zm0 3.036h-10.691a.45.45 0 0 1 0-.9h10.691a.45.45 0 1 1 0 .9Zm0 10.387h-10.691a.45.45 0 1 1 0-.899h10.691a.45.45 0 1 1 0 .899Zm0 3.036h-10.691a.45.45 0 1 1 0-.899h10.691a.45.45 0 1 1 0 .899Z"/>
  <path fill="#FFE91D" d="m181.647 135.738 1.419-9.367 2.182-38.904-1.597 1.21-5.186 13.803 2.593 2.509-2.055 2.676s2.48 16.448 2.644 28.073Zm15.181-9.068.698 10.296c.824-8.054 4.949-27.907 4.949-27.907l-3.332-3.262 3.929-2.844-3.929-15.004-4.016-1.518 1.701 40.239Z"/>
  <path fill="#F6F6F7" d="M153.029 142.534c0-.92.746-1.665 1.665-1.665h13.17v3.329h-13.17a1.665 1.665 0 0 1-1.665-1.664Zm0 5.68c0-.919.746-1.664 1.665-1.664h13.17v3.329h-13.17a1.665 1.665 0 0 1-1.665-1.665Zm-3.754 5.681c0-.919.746-1.664 1.665-1.664h13.17v3.329h-13.17a1.666 1.666 0 0 1-1.665-1.665Z"/>
  <path fill="#E4E6EC" d="M96.515 155.217c0-.835-.683-1.518-1.519-1.518h28.714c.835 0 1.519.683 1.519 1.518s-.684 1.518-1.519 1.518H94.996c.836 0 1.519-.683 1.519-1.518Z"/>
  <path fill="#D3D5DD" d="M94.997 153.699H80.88l1.927 1.383c.715.513.352 1.64-.527 1.64l12.719.013c.835 0 1.518-.683 1.518-1.518s-.683-1.518-1.519-1.518Z"/>
  <path fill="#E4E6EC" d="M97.821 131.271a1.394 1.394 0 0 1 2.718.623l-4.999 21.805h-2.86l5.141-22.428Z"/>
  <path fill="#F6F6F7" d="M99.179 130.189h30.474c.993 0 1.729.923 1.507 1.892l-4.661 20.333a1.656 1.656 0 0 1-1.613 1.285H95.539l4.999-21.805a1.394 1.394 0 0 0-1.359-1.705Z"/>
  <path fill="#E4E6EC" d="M111.361 142.2c.343-1.52 1.707-2.507 3.046-2.205 1.339.303 2.145 1.781 1.802 3.301-.344 1.52-1.708 2.507-3.047 2.204-1.339-.302-2.145-1.78-1.801-3.3Z"/>
  <path fill="#FFB197" d="m82.804 155.082-6.13-4.399a6.199 6.199 0 0 0-3.49-1.161l-7.213-.141-.899 5.633 3.368.171s1.129 1.658 3.151 1.658h10.685c.88 0 1.243-1.248.528-1.761Z"/>
  <path fill="#EF9E89" d="m76.675 150.683 3.981 2.857c.305-.782.215-1.42-.027-1.912-.394-.801-1.246-1.273-2.138-1.273h-2.33c.175.101.348.209.514.328Z"/>
  <path fill="#EF7756" d="M67.378 153.561a.45.45 0 1 0-.752.492l.704 1.076 1.112.056-1.064-1.624Zm14.494 4.33a.445.445 0 0 1-.258-.083l-6.275-4.427a.45.45 0 0 1 .518-.735l6.275 4.428a.449.449 0 0 1-.26.817Zm-3.366.22a.448.448 0 0 1-.242-.071l-4.654-2.977a.45.45 0 0 1 .484-.758l4.655 2.978a.45.45 0 0 1-.243.828Z"/>
  <path fill="#4F667D" d="M43.532 169.608s-.753 10.538 4.434 11.96c5.187 1.421 10.457 1.839 10.457 1.839v46.751h14.153l5.74-49.184c.608-5.201-2.389-10.134-7.267-12.038-7.462-2.913-18.632-5.385-27.517.672Z"/>
  <path fill="#1C3C4F" d="M258.55 247H.45a.45.45 0 1 1 0-.899h258.1a.45.45 0 1 1 0 .899Z"/>
  <path fill="#F4A37A" d="M254.438 156.735H4.564v5.5h249.874v-5.5Z"/>
  <path fill="#4A3CA3" d="M58.2 146.542c-4.626-.797-12.18-2.127-13.68-2.502-2.956-.739-5.328.231-5.428.272a.45.45 0 0 0 .346.83c.022-.009 2.21-.894 4.863-.23 1.543.386 9.114 1.719 13.746 2.517a.45.45 0 0 0 .153-.887Z"/>
  <path fill="#FF8B7E" d="M230.472 43.915H216.37a.45.45 0 1 1 0-.9h14.102a.45.45 0 1 1 0 .9Z"/>
  <path fill="#FF8B7E" d="M220.546 45.323a1.858 1.858 0 1 0 0-3.716 1.858 1.858 0 0 0 0 3.716Z"/>
  <path fill="#1C3C4F" d="m78.34 180.85-.3 2.493.868.145.296-2.537c.628-5.377-2.473-10.515-7.542-12.493a52.51 52.51 0 0 0-3.315-1.17.435.435 0 1 0-.261.83c1.074.339 2.171.725 3.26 1.15 4.7 1.835 7.575 6.597 6.993 11.582Z"/>
  <path fill="#FFE91D" d="M173.055 26.693c7.373 0 13.349-5.976 13.349-13.347 0-7.37-5.976-13.346-13.349-13.346s-13.35 5.975-13.35 13.346 5.977 13.347 13.35 13.347Z"/>
  <path fill="#FEFEFF" d="M178.931 13.346c0-.384-.039-.76-.11-1.123l2.136-1.233-1.91-3.307-2.139 1.234a5.857 5.857 0 0 0-1.943-1.122V5.327h-3.82v2.468a5.865 5.865 0 0 0-1.944 1.122l-2.139-1.234-1.91 3.307 2.136 1.232a5.861 5.861 0 0 0 0 2.248l-2.136 1.232 1.91 3.308 2.139-1.235a5.849 5.849 0 0 0 1.944 1.123v2.468h3.82v-2.468a5.858 5.858 0 0 0 1.943-1.123l2.139 1.235 1.91-3.308-2.136-1.232c.071-.364.11-.74.11-1.124Zm-5.877 2.496a2.496 2.496 0 1 1 0-4.992 2.496 2.496 0 0 1 0 4.992Z"/>
  <path fill="#1C3C4F" d="M188.302 75.814c.545 0 .986-.507.986-1.133s-.441-1.133-.986-1.133c-.544 0-.986.507-.986 1.133s.442 1.133.986 1.133Zm-5.285.164c.545 0 .986-.507.986-1.132 0-.626-.441-1.133-.986-1.133-.544 0-.986.507-.986 1.133 0 .625.442 1.132.986 1.132Z"/>
  <path fill="#E85D62" d="M187.044 79.261a8.11 8.11 0 0 1-2.212.044c-.593-.07-.979.613-.598 1.073.367.445.893.854 1.624.967.91.14 1.507-.475 1.873-1.113.275-.479-.142-1.057-.687-.97Z"/>
  <path fill="#EF7756" d="M184.43 78.293a.465.465 0 0 1-.318-.804c.78-.731.796-2.064.796-2.078a.465.465 0 0 1 .464-.463h.001c.257 0 .464.208.464.464 0 .07-.012 1.745-1.089 2.756a.465.465 0 0 1-.318.125Z"/>
  <path fill="#1C3C4F" d="M70.313 100.944c.58 0 1.052-.541 1.052-1.209 0-.667-.471-1.207-1.052-1.207-.58 0-1.051.54-1.051 1.207 0 .668.47 1.209 1.051 1.209Zm5.639.175c.58 0 1.051-.541 1.051-1.208 0-.667-.47-1.208-1.051-1.208-.58 0-1.052.54-1.052 1.208 0 .667.471 1.208 1.052 1.208Z"/>
  <path fill="#EF7756" d="M73.11 106.124c-.809 0-2.013-.184-3.3-1.025a.465.465 0 1 1 .509-.778c1.878 1.225 3.496.814 3.564.795a.463.463 0 0 1 .57.326.464.464 0 0 1-.323.57 4.08 4.08 0 0 1-1.02.112Zm1.373-2.359a.464.464 0 0 1-.318-.126c-1.22-1.143-1.233-3.043-1.233-3.124 0-.256.207-.463.463-.464h.002c.255 0 .463.207.464.464 0 .015.018 1.581.94 2.445a.465.465 0 0 1-.318.805Z"/>
</svg>
